<svg width="130" height="109" viewBox="0 0 130 109" fill="none" xmlns="http://www.w3.org/2000/svg">
<g clip-path="url(#clip0)">
<path fill-rule="evenodd" clip-rule="evenodd" d="M47.2068 75.8245C46.7555 72.7276 48.9001 69.8512 51.997 69.3998C55.0939 68.9485 57.9703 71.0931 58.4217 74.19C58.873 77.2869 56.7284 80.1634 53.6315 80.6147C50.5346 81.066 47.6581 78.9214 47.2068 75.8245Z" fill="white"/>
<path fill-rule="evenodd" clip-rule="evenodd" d="M78.0477 71.3298C77.5963 68.2329 79.741 65.3565 82.8379 64.9051C85.9348 64.4538 88.8112 66.5984 89.2625 69.6953C89.7139 72.7922 87.5692 75.6686 84.4723 76.12C81.3754 76.5713 78.499 74.4267 78.0477 71.3298Z" fill="white"/>
<path fill-rule="evenodd" clip-rule="evenodd" d="M19.4086 22.6104C19.1829 21.062 20.2553 19.6238 21.8037 19.3981L33.0186 17.7637C34.3549 17.5689 35.643 18.3444 36.0962 19.6165L40.1656 31.0384L85.5285 24.4273C86.3641 24.3055 87.2104 24.5628 87.8369 25.129C88.4633 25.6951 88.8046 26.5112 88.7677 27.3548L87.7091 51.5534C87.6067 53.5456 86.8067 55.4384 85.4494 56.9004C84.0989 58.3551 82.282 59.291 80.3142 59.5464L53.1106 63.511C51.1517 63.8279 49.1433 63.4495 47.4337 62.4408C45.7163 61.4274 44.4099 59.8425 43.7428 57.9634C43.7426 57.9626 43.7431 57.9641 43.7428 57.9634L35.6487 35.2449C35.6184 35.1702 35.5912 35.0939 35.5671 35.0159L31.5376 23.706L22.6209 25.0056C21.0725 25.2312 19.6343 24.1589 19.4086 22.6104ZM42.1051 36.4823L49.0828 56.0671C49.3051 56.6938 49.7407 57.2224 50.3134 57.5603C50.8861 57.8982 51.5594 58.0239 52.2155 57.9155L52.2691 57.9071L79.5212 53.9354L79.575 53.9281C80.2347 53.8448 80.8442 53.5322 81.2966 53.0449C81.7469 52.5598 82.0132 51.9325 82.0493 51.2718L82.9568 30.5286L42.1051 36.4823Z" fill="white"/>
</g>
<path d="M129.002 83.976C109.999 80.9991 101.247 78.8228 69.9114 83.976C38.5759 89.1292 22.999 98.4991 15.526 101.401C14.2265 93.4987 38.5759 84.152 69.9114 78.9988C101.247 73.8456 127.703 76.074 129.002 83.976Z" fill="white"/>
<g clip-path="url(#clip1)">
<path d="M86.2527 17.958C86.9893 15.7792 85.8469 14.3811 85.1936 13.9824C83.6677 12.8354 81.9638 12.397 80.1291 12.6789C79.9842 12.701 79.8424 12.7412 79.699 12.7724C79.8241 12.5613 79.942 12.3521 80.0495 12.1449C80.8213 10.6491 80.9659 9.28951 80.479 8.10421C79.7336 6.29031 77.7756 5.63313 77.6921 5.60577L77.6535 5.59446C74.3011 4.71297 72.0414 8.00044 71.9468 8.14111L71.8698 8.29187C71.8427 8.36606 71.8211 8.44956 71.7953 8.52561C70.9642 7.11021 69.7155 6.19105 68.081 5.7965C67.6812 5.65721 65.1725 4.88957 63.2613 6.88475C63.0251 7.13225 62.831 7.41268 62.6578 7.70602C61.9096 7.75352 61.1318 7.96195 60.474 8.49064C59.5805 9.20992 59.2172 10.3105 59.5017 11.4359C59.8043 12.6323 60.7852 13.5487 62.0007 13.772C63.113 13.9758 64.5673 14.5663 66.2302 16.0017C65.6022 16.1754 65.0319 16.4488 64.5427 16.8469C61.6229 19.2169 55.1963 43.1582 55.0556 50.2483C55.044 50.8462 55.3409 51.3625 55.8319 51.5977C56.1577 51.7534 56.5275 51.7657 56.8747 51.6436C57.0502 51.5819 57.2197 51.4862 57.3747 51.3574C62.8773 46.7791 77.7035 26.8415 77.7314 23.1503C77.7351 22.646 77.6465 22.1499 77.4826 21.6648C79.5946 21.9114 80.8488 22.433 81.5852 22.9384C82.6578 23.6747 84.0413 23.8764 85.2063 23.4668L85.2436 23.4537C86.2108 23.1011 86.9161 22.3538 87.1805 21.4031C87.5723 19.9881 86.8602 18.8601 86.1563 18.206C86.1895 18.1224 86.2253 18.0399 86.2527 17.958V17.958ZM84.3999 15.1245C84.5092 15.1959 85.4313 15.8541 84.974 17.3876C84.9347 17.3646 84.8953 17.3453 84.856 17.3233C84.7886 17.285 84.722 17.2487 84.6543 17.2122C84.4813 17.1175 84.3096 17.0283 84.1381 16.9453C84.0855 16.9194 84.0329 16.8938 83.9807 16.8694C81.2167 15.5834 78.6487 15.7756 76.5203 16.5239C75.7656 16.7892 75.0657 17.1244 74.4313 17.4864C74.4929 17.4279 74.5572 17.3685 74.6199 17.3103C74.7073 17.2289 74.7946 17.1471 74.8846 17.0654C74.9815 16.9776 75.0803 16.8908 75.181 16.8037C75.2648 16.7308 75.3518 16.6585 75.4378 16.5861C75.5967 16.4536 75.7588 16.3224 75.9255 16.1932C76.0291 16.1123 76.1331 16.0316 76.2395 15.9538C76.3421 15.8779 76.4473 15.8035 76.552 15.7295C76.669 15.648 76.7872 15.5689 76.9067 15.4908C77.0238 15.4142 77.1421 15.3381 77.2618 15.2652C77.4296 15.1627 77.5999 15.0644 77.7723 14.9713C77.8654 14.921 77.9593 14.8731 78.0535 14.826C78.7904 14.4549 79.5592 14.1737 80.3416 14.0525C81.8107 13.8268 83.1233 14.1674 84.3999 15.1245V15.1245ZM73.1485 8.85098C73.4397 8.45616 75.0924 6.37745 77.2722 6.93244C77.4238 6.98723 78.7212 7.4907 79.1903 8.63385C79.515 9.4252 79.3879 10.3937 78.8112 11.5115C78.4734 12.1664 78.0239 12.8546 77.4747 13.558C77.3913 13.5999 77.3108 13.6481 77.2282 13.6921C77.0537 13.7842 76.8799 13.8762 76.7103 13.9756C76.5927 14.0451 76.4797 14.118 76.3646 14.19C76.2323 14.2733 76.1001 14.3559 75.9715 14.4432C75.8511 14.5237 75.7337 14.6061 75.6172 14.6898C75.4997 14.7739 75.3837 14.8581 75.2692 14.9441C75.1507 15.0335 75.0337 15.1227 74.9188 15.2138C74.8153 15.296 74.7149 15.3784 74.615 15.4612C74.497 15.5587 74.379 15.6556 74.2651 15.7543C74.1881 15.8212 74.1149 15.888 74.0397 15.9552C73.5512 16.3912 73.1062 16.8255 72.7149 17.2353C72.7095 17.2409 72.703 17.2478 72.6976 17.2533C72.8387 16.3672 72.9518 15.3353 72.977 14.2565C72.9785 14.189 72.9824 14.1226 72.9829 14.0548C72.9851 13.8634 72.9807 13.6703 72.9769 13.4767C72.9747 13.3714 72.9746 13.266 72.9697 13.1603C72.9624 12.9778 72.9483 12.7967 72.9342 12.6137C72.9254 12.4978 72.9169 12.382 72.9051 12.2662C72.8867 12.088 72.863 11.9106 72.8375 11.7332C72.8204 11.6156 72.8029 11.4987 72.7823 11.3813C72.752 11.2072 72.7166 11.0347 72.6778 10.8636C72.664 10.8035 72.6561 10.7423 72.6418 10.6827C72.7851 10.0082 72.9516 9.40627 73.1485 8.85098V8.85098ZM64.2887 7.82334C65.6722 6.40261 67.5518 7.0827 67.628 7.11128C67.658 7.12293 67.6879 7.13232 67.7185 7.13981C69.0143 7.44488 69.9595 8.13551 70.6071 9.25035C70.8838 9.72605 71.086 10.2558 71.2373 10.814L71.2533 10.8747C71.531 11.9369 71.6096 13.1046 71.5825 14.2252C71.3885 13.5872 71.1307 12.9503 70.795 12.3362C70.7846 12.317 70.7732 12.2988 70.7631 12.2804C70.6893 12.1479 70.6126 12.0167 70.5314 11.8861C70.4818 11.8064 70.4292 11.7277 70.3765 11.6498C70.3332 11.5854 70.2898 11.5204 70.2439 11.457C70.1692 11.3516 70.0917 11.2476 70.0114 11.1448C69.9899 11.1169 69.9669 11.0892 69.9445 11.0616C69.3002 10.2579 68.4742 9.53929 67.4213 8.9668C67.3922 8.95117 67.363 8.93524 67.3339 8.91961C67.1842 8.84025 67.0322 8.7634 66.8736 8.69081C66.797 8.65542 66.7163 8.62177 66.6373 8.5879C66.5165 8.53584 66.3975 8.48287 66.2713 8.43507C66.041 8.3459 65.8039 8.26151 65.5559 8.18423C65.5543 8.18347 65.5482 8.18129 65.5456 8.18055C65.4771 8.15322 65.328 8.09889 65.1195 8.0336C65.1181 8.03342 65.1171 8.03245 65.1153 8.03208C64.9032 7.96606 64.6313 7.89286 64.3171 7.83057C64.3064 7.82739 64.2983 7.82525 64.2887 7.82334V7.82334ZM62.2556 12.4045C61.5735 12.2796 61.0231 11.7648 60.8528 11.0932C60.7823 10.8123 60.6884 10.1023 61.3478 9.5724C61.5338 9.42214 61.7413 9.31338 61.9603 9.23638C62.3087 9.11391 62.6865 9.07525 63.0574 9.08114C63.0574 9.08114 63.0588 9.08131 63.0594 9.08111C63.0691 9.08133 63.0784 9.08236 63.0882 9.08259C63.2163 9.08563 63.3433 9.09235 63.4676 9.10536C63.5291 9.11192 63.5875 9.12091 63.6476 9.12829C63.7486 9.14219 63.8489 9.15699 63.9438 9.17436C63.9811 9.18114 64.0181 9.18802 64.054 9.19532C64.4807 9.28338 64.826 9.39738 64.9973 9.45886C65.0306 9.47135 65.0512 9.47971 65.0551 9.48033C65.075 9.4889 65.0954 9.49567 65.116 9.50234C65.4773 9.6134 65.8193 9.74418 66.146 9.89027C66.2391 9.93182 66.3204 9.98049 66.4096 10.0244C66.637 10.1358 66.8609 10.2514 67.0711 10.3801C67.1632 10.4369 67.2469 10.498 67.3342 10.5571C67.5319 10.6909 67.7241 10.8309 67.9051 10.9814C67.9761 11.0407 68.0452 11.101 68.1125 11.1618C68.3159 11.346 68.5104 11.5399 68.6903 11.7469C68.7184 11.7787 68.7488 11.8102 68.7765 11.8426C69.6707 12.9095 70.2666 14.268 70.5529 15.9148C70.7512 17.0559 70.7636 18.1507 70.7152 19.0176C70.4641 18.6582 70.2141 18.3234 69.9662 18.0004C69.9253 17.9464 69.8834 17.8955 69.8421 17.8424C69.6133 17.5491 69.3854 17.2708 69.1603 17.0068C69.122 16.9622 69.0843 16.9165 69.0457 16.872C66.3766 13.8003 63.972 12.7186 62.2556 12.4045V12.4045ZM76.3386 23.1416C76.3294 24.2486 74.6121 27.2589 72.1533 30.9127C72.0894 30.9097 72.0253 30.9034 71.9589 30.9188C70.8441 31.1787 69.2594 31.1144 68.2315 30.3843C67.9184 30.1614 67.4821 30.2362 67.2597 30.5485C67.0358 30.8613 67.1088 31.2952 67.4225 31.5178C68.5137 32.2917 69.9216 32.4994 71.1136 32.4325C69.5544 34.6779 67.7845 37.0853 65.996 39.404C65.8675 39.3527 65.728 39.3275 65.5834 39.3608C64.8836 39.5242 63.8929 39.4872 63.2581 39.0373C62.9452 38.815 62.5106 38.8879 62.2865 39.2021C62.0631 39.5147 62.1359 39.9487 62.4499 40.1712C63.1722 40.6839 64.0818 40.8466 64.8846 40.8316C61.579 45.0309 58.3604 48.7294 56.484 50.2902C56.4717 50.3005 56.4598 50.3093 56.4514 50.3166C56.4501 50.3045 56.4494 50.2901 56.4497 50.2738C56.4815 48.6691 56.7951 46.4112 57.287 43.8334C57.3189 43.8484 57.3441 43.872 57.3788 43.8827C57.9724 44.0623 58.5796 44.1861 59.1824 44.25C59.2891 44.2612 59.3933 44.2482 59.4886 44.2147C59.7336 44.1285 59.9206 43.9083 59.951 43.6333C59.9925 43.251 59.7164 42.9084 59.3342 42.8684C58.8169 42.8131 58.296 42.7068 57.7853 42.5528C57.7049 42.5287 57.6243 42.5255 57.5453 42.5304C58.1827 39.4246 59.04 35.9574 59.9685 32.619C60.4473 33.1805 61.0916 33.6917 61.8592 33.9086C62.003 33.9496 62.1486 33.9418 62.2803 33.8955C62.4866 33.823 62.6558 33.6554 62.7204 33.4295C62.8257 33.0602 62.6115 32.676 62.2414 32.5713C61.4911 32.3593 60.8432 31.6126 60.5332 30.9662C60.5161 30.9301 60.4861 30.9062 60.4639 30.8742C61.2027 28.3233 61.9659 25.9121 62.6845 23.8686C63.378 24.8384 64.4235 25.8061 65.7148 26.1701C65.8585 26.2108 66.0042 26.2033 66.1356 26.1571C66.3422 26.0845 66.5119 25.9164 66.5759 25.6907C66.6808 25.3212 66.467 24.9375 66.097 24.8328C64.8816 24.4895 63.8396 23.2984 63.3463 22.2709C63.3331 22.2437 63.3096 22.2261 63.2937 22.2015C64.1565 19.926 64.9157 18.3375 65.424 17.9244C65.7057 17.6957 66.0194 17.5208 66.3683 17.3981C66.6983 17.2821 67.061 17.2126 67.4592 17.1893C67.9774 17.739 68.4905 18.354 68.9961 19.0231C69.0291 19.0669 69.0618 19.1097 69.0945 19.1543C69.3059 19.4378 69.5154 19.7338 69.724 20.0368C69.771 20.1052 69.8171 20.1692 69.8645 20.2387C70.1082 20.6 70.3504 20.9721 70.5893 21.3593C70.605 21.3849 70.6271 21.4044 70.646 21.4279C70.6641 21.45 70.6802 21.4749 70.7011 21.4947C70.7068 21.5007 70.7121 21.5071 70.7187 21.5127C70.7368 21.5292 70.7583 21.5393 70.7778 21.553C70.7827 21.5566 70.7875 21.5598 70.7933 21.5631C70.8156 21.5782 70.8358 21.5959 70.8595 21.6085C70.8647 21.611 70.8689 21.6145 70.8742 21.6172L70.8748 21.617C70.8775 21.6181 70.8801 21.6188 70.8823 21.6194C70.9071 21.6315 70.9344 21.6372 70.9612 21.6463C70.9673 21.6485 70.9729 21.6502 70.9791 21.6526C71.0008 21.6596 71.0214 21.6699 71.0437 21.6747C71.0525 21.6769 71.0614 21.6768 71.0707 21.6778C71.0888 21.681 71.1072 21.6812 71.1257 21.6827C71.143 21.6839 71.1589 21.6826 71.1761 21.6832C71.1991 21.6834 71.221 21.689 71.2439 21.6869C71.6554 21.6496 72.0575 21.6193 72.4522 21.5946C72.5417 21.589 72.6258 21.586 72.7135 21.581C73.0232 21.5633 73.3299 21.5484 73.6284 21.5386C73.7049 21.5359 73.7776 21.5345 73.8533 21.5331C74.1651 21.5253 74.472 21.5202 74.7699 21.5209C74.8215 21.521 74.8726 21.5209 74.9236 21.5213C75.2664 21.5238 75.6013 21.5304 75.9245 21.5444C75.9254 21.5441 75.9259 21.5446 75.9267 21.5443C76.2068 22.0675 76.3429 22.5927 76.3386 23.1416V23.1416ZM85.8368 21.0336C85.6525 21.6985 85.1535 22.0066 84.7671 22.1467C84.7592 22.1495 84.7515 22.1522 84.7435 22.155C83.9923 22.4191 83.0873 22.2807 82.3749 21.7917C81.0278 20.8677 79.0154 20.3328 76.3862 20.1788C76.3817 20.1784 76.3776 20.1752 76.3723 20.1751C76.3431 20.1734 76.3118 20.1735 76.2826 20.1718C76.0544 20.1592 75.8177 20.1519 75.5797 20.1457C75.3741 20.1397 75.1658 20.1357 74.953 20.1339C74.7371 20.1326 74.5196 20.1318 74.2952 20.1347C73.9878 20.1383 73.6716 20.1487 73.3517 20.1611C73.2315 20.1655 73.1206 20.165 72.9986 20.1708C73.0445 20.1311 73.0977 20.0895 73.1454 20.0492C73.1634 20.0369 73.1854 20.0345 73.2021 20.0213C74.991 18.5542 78.2465 16.5991 82.0293 17.6347C82.2248 17.6886 82.4236 17.7603 82.6221 17.8311C82.7174 17.8646 82.8112 17.8893 82.9069 17.9269C83.5158 18.1671 84.1379 18.4885 84.7685 18.9021L84.891 18.9838C84.8948 18.9861 84.8992 18.9862 84.9021 18.9888C85.233 19.215 86.1368 19.9533 85.8368 21.0336V21.0336Z" fill="white"/>
<path d="M72.4568 22.5145C70.9319 22.4764 69.3607 21.9962 67.7877 21.0873C67.4548 20.895 67.0289 21.0089 66.8354 21.3412C66.6419 21.6734 66.7551 22.0985 67.0881 22.2908C68.8646 23.3172 70.6586 23.8606 72.4195 23.905C72.5066 23.9069 72.5906 23.8933 72.6688 23.8658C72.9337 23.7727 73.1263 23.5239 73.135 23.2271C73.1448 22.8436 72.8415 22.5246 72.4568 22.5145Z" fill="white"/>
</g>
<path d="M28.1714 78.8579C28.2961 78.8195 29.3917 78.5309 30.2789 79.8626C30.2361 79.8782 30.1961 79.8961 30.1541 79.9123C30.0815 79.9396 30.0111 79.9677 29.9397 79.9964C29.7563 80.0689 29.578 80.144 29.4046 80.2229C29.351 80.2469 29.2977 80.2709 29.2456 80.2954C26.4901 81.5996 24.9969 83.6977 24.2122 85.8129C23.934 86.563 23.7446 87.3156 23.6176 88.0348C23.612 87.95 23.6074 87.8627 23.6027 87.7773C23.5959 87.658 23.5888 87.5386 23.5835 87.4171C23.5779 87.2865 23.5743 87.155 23.5716 87.0219C23.5691 86.9108 23.569 86.7977 23.5683 86.6853C23.568 86.4784 23.5706 86.2699 23.5778 86.0591C23.5818 85.9277 23.5862 85.7962 23.5943 85.6647C23.6015 85.5372 23.6115 85.4087 23.6215 85.2809C23.6336 85.1388 23.6483 84.9974 23.6646 84.8555C23.6804 84.7165 23.6975 84.5769 23.7179 84.4383C23.7464 84.2437 23.7796 84.0499 23.8182 83.8577C23.839 83.754 23.8621 83.6512 23.8861 83.5486C24.0716 82.7447 24.3466 81.9737 24.7533 81.2944C25.5186 80.0202 26.6194 79.2282 28.1714 78.8579ZM16.1558 83.503C16.0382 83.0267 15.4955 80.4272 17.3154 79.1052C17.4544 79.0236 18.6707 78.3474 19.8498 78.7172C20.666 78.9731 21.3296 79.6897 21.8209 80.8478C22.1088 81.5261 22.3509 82.3116 22.5409 83.1835C22.5199 83.2744 22.5055 83.3671 22.4865 83.4588C22.4459 83.6519 22.4055 83.8444 22.3736 84.0383C22.352 84.1732 22.3358 84.3067 22.3176 84.4412C22.2971 84.5962 22.2762 84.7507 22.2611 84.9054C22.2461 85.0494 22.2345 85.1924 22.2244 85.3355C22.214 85.4796 22.2046 85.6227 22.1976 85.7656C22.1906 85.914 22.1845 86.0609 22.1812 86.2076C22.1782 86.3397 22.1774 86.4696 22.1773 86.5993C22.1769 86.7525 22.176 86.9051 22.1791 87.0558C22.1814 87.1577 22.186 87.2568 22.1897 87.3575C22.2128 88.0119 22.2625 88.6317 22.3276 89.1946C22.3284 89.2023 22.3296 89.2117 22.3304 89.2194C21.739 88.5446 21.0176 87.7981 20.2039 87.0894C20.153 87.0451 20.1044 86.9996 20.0526 86.956C19.9067 86.8319 19.7554 86.7119 19.604 86.5911C19.5216 86.5254 19.4405 86.4582 19.3561 86.3944C19.2111 86.2834 19.0628 86.1786 18.913 86.0725C18.8182 86.0052 18.7238 85.9377 18.6271 85.8727C18.4782 85.773 18.3267 85.6779 18.174 85.5842C18.0725 85.5221 17.9715 85.4609 17.868 85.4017C17.7148 85.3138 17.5594 85.2307 17.403 85.1513C17.3479 85.1235 17.2958 85.0904 17.2408 85.0633C16.8137 84.5221 16.4571 84.0093 16.1558 83.503ZM9.70345 89.661C9.4948 87.689 11.2191 86.6778 11.2898 86.6375C11.3179 86.6218 11.3442 86.6048 11.3695 86.5861C12.4323 85.7843 13.5675 85.4987 14.8389 85.713C15.3816 85.8042 15.9182 85.9872 16.4443 86.2275L16.5012 86.254C17.4957 86.7193 18.444 87.405 19.2887 88.1419C18.6739 87.8835 18.0193 87.6748 17.3325 87.5405C17.3111 87.5362 17.2898 87.5333 17.2692 87.5294C17.1201 87.5015 16.9702 87.4767 16.8178 87.4556C16.7248 87.4429 16.6307 87.4331 16.537 87.4238C16.4599 87.4159 16.3822 87.4078 16.304 87.4026C16.1753 87.3926 16.0457 87.3857 15.9153 87.3819C15.8801 87.3805 15.8441 87.3805 15.8086 87.3801C14.7787 87.3621 13.6981 87.5382 12.5849 87.9822C12.5542 87.9946 12.5233 88.0069 12.4927 88.0193C12.336 88.0837 12.1798 88.1515 12.0226 88.2271C11.9464 88.2634 11.869 88.3039 11.7924 88.3431C11.6752 88.4027 11.5584 88.4604 11.441 88.527C11.2253 88.6471 11.0088 88.7756 10.7909 88.9169C10.7909 88.9169 10.7837 88.921 10.7815 88.9225C10.7167 88.9577 10.5796 89.0377 10.3961 89.1563L10.3923 89.1586C10.2059 89.2795 9.97592 89.4418 9.72721 89.6437C9.71789 89.65 9.71109 89.6548 9.70345 89.661ZM11.9279 94.1523C11.3959 94.5971 10.6482 94.6916 10.0229 94.3933C9.76175 94.268 9.15558 93.8866 9.1694 93.0407C9.17267 92.8017 9.22163 92.5726 9.30238 92.3549C9.4308 92.0087 9.64252 91.6934 9.88406 91.4119L9.88531 91.4103C9.8917 91.403 9.89845 91.3964 9.90484 91.3891C9.98905 91.2925 10.0754 91.1991 10.1649 91.1118C10.2092 91.0687 10.2534 91.0295 10.2975 90.988C10.3728 90.9192 10.4482 90.8515 10.5223 90.7896C10.5513 90.7652 10.5802 90.7412 10.6088 90.7183C10.9492 90.4464 11.2576 90.2536 11.4143 90.1611C11.4452 90.1435 11.4648 90.133 11.4677 90.1304C11.4871 90.1205 11.5053 90.1092 11.5236 90.0976C11.8399 89.8907 12.159 89.7112 12.4802 89.5533C12.5716 89.5082 12.661 89.4768 12.7518 89.4362C12.9828 89.3325 13.2148 89.2342 13.4481 89.1547C13.5507 89.1202 13.6511 89.0949 13.7524 89.0655C13.9816 88.9989 14.2122 88.9406 14.4436 88.8976C14.5346 88.8808 14.6251 88.8662 14.7149 88.8533C14.9865 88.8145 15.26 88.7888 15.5342 88.7828C15.5767 88.7815 15.6202 88.7782 15.6628 88.7776C17.055 88.7717 18.4807 89.1814 19.9303 90.0136C20.9347 90.5903 21.7848 91.2804 22.4205 91.8716C21.9837 91.8351 21.5663 91.8134 21.1595 91.7977C21.0919 91.7947 21.0259 91.7943 20.9587 91.7922C20.5869 91.7807 20.2272 91.7781 19.8803 91.7826C19.8215 91.7836 19.7622 91.7833 19.7034 91.7846C15.635 91.8747 13.2663 93.0329 11.9279 94.1523ZM33.6347 81.529C34.0283 82.0957 33.9464 82.6763 33.8073 83.063C33.8043 83.071 33.8015 83.0786 33.7986 83.0866C33.5216 83.8331 32.8368 84.4408 32.0055 84.6762C30.4339 85.1219 28.7364 86.3279 26.9378 88.2518C26.9346 88.255 26.9295 88.2561 26.926 88.2601C26.9061 88.2815 26.8862 88.3056 26.8662 88.327C26.7107 88.4945 26.5538 88.6718 26.3969 88.8509C26.261 89.0053 26.1247 89.1629 25.9874 89.3254C25.8483 89.4907 25.7088 89.6574 25.5676 89.8319C25.374 90.0706 25.1799 90.3205 24.9849 90.5745C24.9115 90.6698 24.8403 90.7548 24.7668 90.8523C24.7656 90.7916 24.7676 90.7241 24.7671 90.6617C24.7691 90.64 24.7813 90.6214 24.7819 90.6002C24.7966 88.2867 25.3732 84.5333 28.5871 82.2855C28.7536 82.1695 28.9358 82.0624 29.1171 81.955C29.2037 81.9032 29.2827 81.8468 29.3728 81.7972C29.9466 81.4824 30.5914 81.2093 31.3126 80.9885L31.4536 80.9465C31.4578 80.945 31.4607 80.9418 31.4646 80.9412C31.85 80.8312 32.9955 80.6079 33.6347 81.529Z" fill="white"/>
<defs>
<clipPath id="clip0">
<rect width="68" height="68" fill="white" transform="translate(19 19.8067) rotate(-8.29183)"/>
</clipPath>
<clipPath id="clip1">
<rect width="41" height="41" fill="white" transform="translate(42 13.5977) rotate(-19.3691)"/>
</clipPath>
</defs>
</svg>
