<svg width="14" height="15" viewBox="0 0 14 15" fill="none" xmlns="http://www.w3.org/2000/svg">
<path fill-rule="evenodd" clip-rule="evenodd" d="M13.7071 0.362152C14.0976 0.757781 14.0976 1.39922 13.7071 1.79485L1.70711 13.9517C1.31658 14.3473 0.683417 14.3473 0.292893 13.9517C-0.0976311 13.5561 -0.0976311 12.9146 0.292893 12.519L12.2929 0.362152C12.6834 -0.0334776 13.3166 -0.0334776 13.7071 0.362152Z" fill="#A29F9F"/>
<path fill-rule="evenodd" clip-rule="evenodd" d="M0.292893 0.362152C0.683417 -0.0334776 1.31658 -0.0334776 1.70711 0.362152L13.7071 12.519C14.0976 12.9146 14.0976 13.5561 13.7071 13.9517C13.3166 14.3473 12.6834 14.3473 12.2929 13.9517L0.292893 1.79485C-0.0976311 1.39922 -0.0976311 0.757781 0.292893 0.362152Z" fill="#A29F9F"/>
</svg>
