<svg width="53" height="16" viewBox="0 0 53 16" fill="none" xmlns="http://www.w3.org/2000/svg">
<path fill-rule="evenodd" clip-rule="evenodd" d="M38.1182 6.99866V15.4916H42.6735V10.4587H47.8372C50.0101 10.442 51.856 9.00433 52.5521 6.99866H38.1182Z" fill="white"/>
<path fill-rule="evenodd" clip-rule="evenodd" d="M37.5098 0C37.775 3.47151 40.9462 6.21242 44.8195 6.21242C44.8324 6.21242 52.7414 6.21242 52.7414 6.21242C52.7993 5.89411 52.8302 5.56548 52.8302 5.22952C52.8302 2.35382 50.5904 0.0212746 47.8191 0.000102434L37.5098 0Z" fill="white"/>
<path fill-rule="evenodd" clip-rule="evenodd" d="M30.7674 6.1298L30.7704 6.12195L30.7714 6.12205C30.8182 6.03519 30.907 5.97653 31.0097 5.97653C31.1583 5.97653 31.2789 6.09902 31.2829 6.25177V15.4132H35.8393V0H31.2829C30.7055 0.0199328 30.0533 0.458972 29.81 0.997983L26.1851 9.05031C26.1761 9.08326 26.1622 9.11394 26.1432 9.14151L26.1422 9.14419V9.14409C26.0874 9.22578 25.9956 9.27939 25.8919 9.27939C25.7244 9.27939 25.5888 9.13851 25.5888 8.9648V0H21.0327V15.4132H25.5888V15.4115C26.1602 15.3805 26.7974 14.9464 27.0367 14.4152L30.7574 6.15056C30.7604 6.14353 30.7634 6.13662 30.7674 6.1298Z" fill="white"/>
<path fill-rule="evenodd" clip-rule="evenodd" d="M13.7552 6.39326L11.0925 15.4132H7.81509L5.15079 6.38779C5.12506 6.2433 5.0028 6.13383 4.85581 6.13383C4.69017 6.13383 4.55584 6.27284 4.55584 6.44438C4.55584 6.44573 4.55585 6.44707 4.55595 6.44841L4.55584 15.4132H0V0H3.91044H5.0751C5.91338 0 6.79183 0.673792 7.03685 1.50364L9.25399 9.01438C9.36439 9.38814 9.54329 9.38773 9.65348 9.01438L11.8707 1.50364C12.1159 0.673173 12.9941 0 13.8325 0H14.9967H18.9069V15.4132H14.351V6.44841C14.351 6.44707 14.351 6.44573 14.351 6.44438C14.351 6.27284 14.2167 6.13383 14.0511 6.13383C13.9023 6.13383 13.7787 6.24609 13.7552 6.39326Z" fill="white"/>
</svg>
