<svg width="118" height="30" viewBox="0 0 118 30" fill="none" xmlns="http://www.w3.org/2000/svg">
<path d="M17.4772 13.8553C17.4797 16.1216 18.8365 18.167 20.9235 19.0506C20.5225 20.355 19.9173 21.5876 19.1305 22.7026C18.0745 24.2844 16.9679 25.8288 15.209 25.8574C13.5018 25.897 12.9276 24.852 10.9685 24.852C8.99072 24.852 8.37912 25.8288 6.74122 25.897C5.06702 25.9597 3.78772 24.2107 2.69212 22.6454C0.50423 19.4499 -1.19967 13.6364 1.08502 9.68193C2.15762 7.75393 4.16332 6.53043 6.36832 6.45893C8.04362 6.42483 9.59902 7.59083 10.6297 7.59083C11.6395 7.59083 13.5634 6.19603 15.5467 6.40283C17.4321 6.46073 19.1794 7.40553 20.2602 8.95153C18.5538 10.0015 17.5037 11.8519 17.4772 13.8553ZM14.252 4.30073C13.3218 5.45783 11.9119 6.12403 10.4273 6.10803C10.3335 4.65743 10.8198 3.22893 11.7792 2.13699C12.7513 1.03093 14.1042 0.331489 15.5687 0.177889C15.6832 1.67115 15.2108 3.15023 14.252 4.30073ZM38.1869 21.9337H32.5956L31.2525 25.8992H28.8853L34.1818 11.2318H36.6414L41.9368 25.8992H39.5289L38.1869 21.9337ZM33.1753 20.1044H37.6072L35.4226 13.6694H35.3621L33.1753 20.1044ZM53.3735 20.551C53.3735 23.873 51.5948 26.0092 48.9108 26.0092C47.5234 26.0815 46.2166 25.3548 45.5459 24.1381H45.4953V29.4346H43.3008V15.2039H45.426V16.9826H45.4667C46.1669 15.7729 47.4753 15.046 48.8723 15.0906C51.5849 15.0928 53.3735 17.2378 53.3735 20.551ZM51.1174 20.551C51.1174 18.384 49.9987 16.9617 48.2904 16.9617C46.614 16.9617 45.4854 18.4137 45.4854 20.551C45.4854 22.7059 46.614 24.148 48.2904 24.148C49.9987 24.148 51.1174 22.7367 51.1174 20.551ZM65.1435 20.551C65.1435 23.873 63.3648 26.0092 60.6808 26.0092C59.2934 26.0815 57.9866 25.3548 57.3159 24.1381H57.2653V29.4346H55.0697V15.2039H57.1949V16.9826H57.2356C57.9358 15.7729 59.2442 15.046 60.6412 15.0906C63.3538 15.0928 65.1435 17.2378 65.1435 20.551ZM62.8874 20.551C62.8874 18.384 61.7687 16.9617 60.0615 16.9617C58.3851 16.9617 57.2565 18.4137 57.2565 20.551C57.2565 22.7059 58.3851 24.148 60.0615 24.148C61.7687 24.148 62.8874 22.7367 62.8874 20.551ZM72.9227 21.8105C73.0844 23.2647 74.4979 24.2195 76.4295 24.2195C78.2797 24.2195 79.6107 23.2647 79.6107 21.9524C79.6107 20.8139 78.8077 20.1319 76.9069 19.6644L75.0061 19.2079C72.3133 18.5567 71.0626 17.2972 71.0626 15.2545C71.0626 12.7234 73.2681 10.9854 76.3998 10.9854C79.4996 10.9854 81.6237 12.7234 81.6952 15.2534H79.4787C79.3467 13.7904 78.1356 12.9071 76.3679 12.9071C74.5991 12.9071 73.3891 13.8003 73.3891 15.1027C73.3891 16.14 74.1613 16.7494 76.0522 17.2147L77.6681 17.6129C80.6777 18.3246 81.9273 19.5335 81.9273 21.6796C81.9273 24.423 79.7416 26.1423 76.2645 26.1423C73.0129 26.1423 70.8162 24.4648 70.6732 21.8105H72.9227ZM86.6661 12.6739V15.2039H88.6989V16.9441H86.6661V22.839C86.6661 23.7553 87.0731 24.181 87.9663 24.181C88.2076 24.1777 88.4485 24.1612 88.6879 24.1315V25.8585C88.2862 25.9342 87.8778 25.9685 87.4691 25.9608C85.3032 25.9608 84.4595 25.1468 84.4595 23.0733V16.9441H82.9052V15.205H84.4595V12.6739H86.6661ZM89.8781 20.5499C89.8781 17.1861 91.8597 15.0719 94.9487 15.0719C98.0487 15.0719 100.022 17.1861 100.022 20.5499C100.022 23.9247 98.0597 26.0279 94.9487 26.0279C91.8397 26.0312 89.8781 23.9258 89.8781 20.5499ZM97.7847 20.5499C97.7847 18.2432 96.7267 16.8803 94.9487 16.8803C93.1717 16.8803 92.1147 18.2531 92.1147 20.551C92.1147 22.8687 93.1717 24.2206 94.9487 24.2206C96.7287 24.2206 97.7847 22.8676 97.7847 20.551V20.5499ZM101.832 15.2039H103.925V17.0244H103.976C104.268 15.8526 105.342 15.0464 106.549 15.0928C106.802 15.0917 107.054 15.1192 107.301 15.1742V17.2268C106.982 17.1291 106.649 17.0845 106.315 17.0948C105.669 17.0684 105.045 17.3255 104.605 17.7984C104.166 18.2713 103.955 18.9128 104.028 19.5544V25.8981H101.832V15.2039ZM117.421 22.7565C117.125 24.698 115.236 26.0301 112.817 26.0301C109.706 26.0301 107.775 23.9467 107.775 20.6027C107.775 17.2477 109.717 15.073 112.725 15.073C115.684 15.073 117.545 17.1047 117.545 20.3475V21.0999H109.992V21.2319C109.921 22.0278 110.196 22.8159 110.746 23.3953C111.296 23.9748 112.069 24.2898 112.867 24.2602C113.932 24.3598 114.936 23.7484 115.337 22.7565H117.421ZM110.001 19.5654H115.347C115.387 18.8501 115.126 18.1505 114.629 17.6354C114.131 17.1202 113.441 16.8361 112.724 16.8517C111.229 16.8431 110.01 18.0481 110.001 19.5434V19.5654ZM31.6166 3.16993H32.5593C33.2078 3.25023 33.7986 2.78983 33.8793 2.14139C33.8826 2.10839 33.8859 2.07869 33.887 2.04569C33.887 1.39559 33.3986 0.975389 32.5692 0.975389C31.8823 0.880049 31.2479 1.35893 31.1513 2.04569L31.148 2.07869H30.1118C30.1482 1.46696 30.437 0.897799 30.9091 0.507179C31.3813 0.116549 31.9945 -0.060481 32.6022 0.018389C33.9893 0.018389 34.9672 0.796089 34.9672 1.91259C34.9739 2.68473 34.4404 3.35663 33.6868 3.52523V3.60773C34.5888 3.64733 35.2895 4.40963 35.2543 5.31163C35.1894 5.94113 34.8736 6.51803 34.3784 6.91203C33.8831 7.30613 33.2501 7.48413 32.622 7.40603C32.0064 7.49013 31.3825 7.32613 30.888 6.94993C30.3934 6.57383 30.0686 6.01643 29.9853 5.40073C29.982 5.37323 29.9776 5.34793 29.9754 5.32043H31.0259C31.0886 5.99473 31.709 6.42923 32.622 6.42923C33.535 6.42923 34.1312 5.94083 34.1312 5.25223C34.1312 4.55483 33.5691 4.12363 32.5879 4.12363H31.6155V3.16663H31.6166V3.16993ZM36.4478 5.73293C36.4478 4.77483 37.1617 4.22263 38.4267 4.14563L39.8677 4.06313V3.60443C39.8677 3.04233 39.4981 2.72443 38.7787 2.72443C38.1935 2.72443 37.7876 2.94113 37.6699 3.31733H36.6535C36.7613 2.40433 37.6215 1.81689 38.8282 1.81689C40.1614 1.81689 40.9138 2.48023 40.9138 3.60443V7.23773H39.9029V6.48973H39.8204C39.4776 7.03593 38.8674 7.35533 38.2232 7.32573C37.7712 7.37293 37.3203 7.22673 36.982 6.92323C36.6438 6.61983 36.4497 6.18733 36.4478 5.73293ZM39.8666 5.27973V4.83533L38.5675 4.91783C37.8349 4.96733 37.5038 5.21483 37.5038 5.68563C37.5038 6.16413 37.9196 6.44243 38.4905 6.44243C38.8283 6.47623 39.1655 6.37163 39.4248 6.15253C39.6842 5.93333 39.8436 5.61843 39.8666 5.27973ZM43.6979 2.80363V7.23883H42.6485V1.92029H46.1509V2.80363H43.6979ZM52.5111 4.57683C52.5111 6.26753 51.6564 7.32683 50.3133 7.32683C49.6402 7.37363 49.0013 7.02503 48.6765 6.43363H48.594V9.00763H47.5446V1.92029H48.5555V2.79923H48.6336C48.9636 2.18869 49.6104 1.81579 50.3045 1.83119C51.6575 1.83009 52.5111 2.88613 52.5111 4.57683ZM51.432 4.57683C51.432 3.45373 50.8996 2.77503 50.0119 2.77503C49.1286 2.77503 48.5764 3.46803 48.5764 4.58123C48.5764 5.69003 49.1286 6.38303 50.0086 6.38303C50.8996 6.38303 51.432 5.70433 51.432 4.57683ZM53.9092 9.14183V8.23983C54.0225 8.25413 54.1369 8.26073 54.2524 8.25963C54.7154 8.29363 55.1297 7.97363 55.2138 7.51713L55.2919 7.25863L53.3669 1.92029H54.5098L55.8441 6.14433H55.9266L57.2554 1.92029H58.3675L56.3853 7.45773C55.931 8.75243 55.4272 9.16713 54.3437 9.16713C54.1986 9.16523 54.0536 9.15723 53.9092 9.14293V9.14183ZM59.1859 5.72853H60.2309C60.3332 6.19713 60.7732 6.44133 61.3881 6.44133C62.0877 6.44133 62.5167 6.13333 62.5167 5.65483C62.5167 5.14223 62.1317 4.89803 61.3881 4.89803H60.5928V4.08293H61.3749C62.0096 4.08293 62.333 3.83873 62.333 3.39543C62.333 3.00493 62.0195 2.70793 61.3749 2.70793C60.7886 2.70793 60.3585 2.95653 60.2914 3.37783H59.2805C59.4382 2.37403 60.3706 1.68139 61.3771 1.82019C62.6421 1.82019 63.3648 2.39223 63.3648 3.28983C63.3771 3.80573 63.0266 4.25993 62.5244 4.37883V4.46133C63.125 4.53833 63.5716 5.05313 63.565 5.65813C63.565 6.66903 62.7048 7.33893 61.3903 7.33893C60.2276 7.33453 59.2838 6.80323 59.1859 5.72853ZM65.0742 7.23773V1.91919H66.1148V5.57673H66.1973L68.6492 1.91809H69.6898V7.23773H68.6492V3.55933H68.5711L66.1159 7.23773H65.0742ZM75.4208 2.80363H73.7466V7.23883H72.6961V2.80363H71.0219V1.92029H75.4219V2.80363H75.4208ZM81.0748 5.80113C80.7796 6.80403 79.8086 7.45173 78.7692 7.33893C78.0602 7.35743 77.3789 7.06353 76.9059 6.53513C76.4329 6.00663 76.2161 5.29693 76.3129 4.59443C76.2188 3.88973 76.4351 3.17883 76.9057 2.64603C77.3763 2.11312 78.055 1.81064 78.7659 1.81689C80.2465 1.81689 81.1397 2.82783 81.1397 4.49873V4.86503H77.3843V4.92443C77.3504 5.31913 77.4851 5.70983 77.755 5.99993C78.0249 6.28993 78.4049 6.45233 78.8011 6.44683C79.3148 6.50843 79.8131 6.25433 80.0661 5.80223L81.0748 5.80113ZM77.3843 4.08733H80.0694C80.0958 3.72663 79.969 3.37153 79.72 3.10913C79.4711 2.84683 79.1231 2.70153 78.7615 2.70903C78.3946 2.70423 78.0414 2.84793 77.782 3.10743C77.5227 3.36703 77.3792 3.72043 77.3843 4.08733ZM85.5254 1.91919H87.9234C88.964 1.91919 89.5745 2.44613 89.5745 3.27223C89.5778 3.81123 89.2038 4.28093 88.6758 4.39423V4.47783C89.3207 4.51923 89.8204 5.05813 89.8132 5.70433C89.8132 6.63273 89.1147 7.23773 87.9487 7.23773H85.5265V1.91919H85.5254ZM86.566 2.72553V4.10273H87.6066C88.2413 4.10273 88.5449 3.85853 88.5449 3.40863C88.5449 2.99393 88.2809 2.72553 87.7232 2.72553H86.566ZM86.566 4.87383V6.43143H87.8112C88.4316 6.43143 88.7638 6.15643 88.7638 5.65373C88.7638 5.12133 88.3876 4.87273 87.6803 4.87273H86.566V4.87383Z" fill="white"/>
</svg>
