<svg width="118" height="28" viewBox="0 0 118 28" fill="none" xmlns="http://www.w3.org/2000/svg">
<path d="M59.0257 15.1063C61.4127 15.1063 63.3587 16.9213 63.3587 19.4227C63.3587 21.9076 61.4127 23.7391 59.0257 23.7391C56.6387 23.7391 54.6928 21.9076 54.6928 19.4227C54.6928 16.9202 56.6387 15.1063 59.0257 15.1063ZM59.0257 22.0385C60.3336 22.0385 61.4623 20.9605 61.4612 19.4227C61.4612 17.8695 60.3336 16.8069 59.0257 16.8069C57.7178 16.8069 56.5892 17.8695 56.5892 19.4227C56.5892 20.9594 57.7178 22.0385 59.0257 22.0385ZM49.5756 15.1063C51.9626 15.1063 53.9074 16.9213 53.9085 19.4227C53.9085 21.9076 51.9626 23.7391 49.5756 23.7391C47.1886 23.7391 45.2427 21.9076 45.2427 19.4227C45.2427 16.9202 47.1886 15.1063 49.5756 15.1063ZM49.5756 22.0385C50.8835 22.0385 52.0111 20.9605 52.0111 19.4227C52.0111 17.8695 50.8835 16.8069 49.5756 16.8069C48.2677 16.8069 47.1391 17.8695 47.1391 19.4227C47.1391 20.9594 48.2677 22.0385 49.5756 22.0385ZM38.3315 16.4318H38.3303H44.4958C44.5618 16.7585 44.5938 17.1512 44.5938 17.5758C44.5938 18.9497 44.2175 20.6503 43.0075 21.8603C41.8305 23.0868 40.3269 23.7402 38.3326 23.7402C34.6377 23.7402 31.5312 20.7317 31.5312 17.0368C31.5312 13.3408 34.6377 10.3334 38.3326 10.3334C40.3753 10.3334 41.8306 11.1353 42.9262 12.1814L41.6348 13.4728C40.8494 12.7358 39.7868 12.1638 38.3315 12.1638C35.6343 12.1638 33.5256 14.3396 33.5256 17.0368C33.5256 19.734 35.6343 21.9087 38.3315 21.9087C40.0816 21.9087 41.0792 21.2047 41.7161 20.5689C42.2397 20.0453 42.5829 19.2929 42.7138 18.2633H38.3315V16.4318ZM84.3114 17.8541L84.5072 18.3447L78.7355 20.7317C79.1766 21.5974 79.862 22.0396 80.8278 22.0396C81.7925 22.0396 82.4623 21.5666 82.9529 20.8472L84.4248 21.8284C83.9507 22.5313 82.8077 23.7413 80.8288 23.7413C78.3769 23.7413 76.5454 21.8438 76.5454 19.4249C76.5454 16.8586 78.3923 15.1085 80.6165 15.1085C82.8561 15.1085 83.9517 16.8905 84.3114 17.8541ZM78.4265 19.2929L82.2852 17.6902C82.0718 17.1512 81.4349 16.775 80.6825 16.775C79.7178 16.775 78.377 17.6242 78.4265 19.2929ZM73.7338 23.4784V10.791H75.6313V23.4784H73.7338ZM70.6274 16.0721H70.6264V15.3703H72.4249V23.1209C72.4249 26.3087 70.5449 27.6166 68.3207 27.6166C66.2285 27.6166 64.9701 26.2108 64.496 25.0646L66.1471 24.3793C66.4419 25.0822 67.1613 25.916 68.3218 25.916C69.7452 25.916 70.6274 25.0327 70.6274 23.3816V22.7601H70.5614C70.1379 23.2837 69.3195 23.7413 68.2899 23.7413C66.1328 23.7413 64.154 21.8603 64.154 19.4403C64.154 17.006 66.1317 15.1085 68.2899 15.1085C69.3195 15.1085 70.1357 15.565 70.5614 16.0721H70.6274ZM68.4528 22.0385C69.7442 22.0385 70.7583 20.944 70.7583 19.4381C70.7583 17.9168 69.7442 16.8058 68.4528 16.8058C67.1449 16.8058 66.0492 17.9168 66.0492 19.4381C66.0492 20.9429 67.1449 22.0385 68.4528 22.0385ZM93.1957 10.791C95.2947 10.791 97.3577 12.3112 97.3577 14.7312C97.3577 17.1512 95.2947 18.6714 93.1957 18.6714H90.5518V23.4773H88.6588V10.791H93.1957ZM93.2448 16.9059C94.6608 16.9059 95.4648 15.7146 95.4648 14.7323C95.4648 13.7291 94.6608 12.5576 93.2448 12.5576H90.5518V16.9059H93.2448ZM104.948 15.0843C107.118 15.0843 108.799 16.3405 108.801 18.5933V23.4575H106.973V22.4785H106.907C106.467 23.1462 105.765 23.7182 104.491 23.7182C102.827 23.7182 101.342 22.6248 101.342 20.9275C101.342 19.0674 103.186 18.0708 104.997 18.0708C105.896 18.0708 106.63 18.3656 106.973 18.5614V18.4294C106.957 17.3844 105.961 16.7981 104.982 16.7981C104.28 16.7981 103.61 17.0269 103.252 17.7287L101.57 17.0269C102.157 15.6882 103.576 15.0843 104.948 15.0843ZM104.719 22.0363C105.812 22.0363 106.823 21.2036 106.972 20.0288C106.466 19.7835 106.074 19.6042 105.241 19.6042C104.311 19.6042 103.234 19.9804 103.234 20.9594C103.234 21.7261 104.099 22.0363 104.719 22.0363ZM115.458 15.3615H117.563L112.356 27.3251H110.381L112.307 23.0483L108.929 15.3615H110.969L113.222 20.8615H113.288L115.458 15.3615ZM98.4027 23.4784V10.791H100.296V23.4784H98.4027ZM32.6191 7.51739H31.87V5.47799H32.4651C32.992 5.02369 33.2494 4.24819 33.2384 3.14819V0.1375H37.3041V5.47799H37.9838V7.51849H37.2369V6.22709H32.618V7.51849H32.6191V7.51739ZM34.0228 3.14709C34.0349 4.10959 33.8413 4.88729 33.4453 5.47689H36.523V0.8844H34.0228V3.14709ZM44.0867 5.43949C43.4872 6.05439 42.7435 6.36239 41.8536 6.36239C40.9637 6.36239 40.2191 6.05439 39.6207 5.43839C39.0223 4.82459 38.723 4.07219 38.723 3.18229C38.723 2.29129 39.0212 1.53999 39.6207 0.9251C40.218 0.3091 40.9626 0.00110054 41.8536 0.00110054C42.738 0.00110054 43.4805 0.311301 44.0822 0.929501C44.6828 1.54549 44.9832 2.29789 44.9832 3.18339C44.9843 4.07219 44.6851 4.82459 44.0867 5.43839V5.43949ZM40.2004 4.92909C40.6514 5.38559 41.2025 5.61329 41.8548 5.61329C42.4776 5.62599 43.0773 5.37789 43.5092 4.92909C43.9591 4.47259 44.1856 3.88959 44.1856 3.18009C44.1856 2.47169 43.9591 1.88979 43.5092 1.43329C43.0771 0.9847 42.4775 0.73671 41.8548 0.7491C41.2025 0.7491 40.6525 0.9768 40.2004 1.43329C39.7494 1.88979 39.5249 2.47279 39.5249 3.18119C39.5249 3.88959 39.7494 4.47259 40.2004 4.92909ZM48.9222 6.36129C48.0268 6.36129 47.2756 6.05769 46.6684 5.45159C46.0612 4.84549 45.7586 4.08759 45.7586 3.18119C45.7586 2.27369 46.0601 1.51689 46.6684 0.9108C47.2745 0.3047 48.0257 0 48.9222 0C49.8407 0 50.5866 0.33 51.1586 0.9944L50.614 1.52129C50.2004 1.0043 49.6361 0.748 48.9222 0.748C48.2578 0.748 47.6979 0.9724 47.2425 1.41899C46.786 1.86779 46.5583 2.45299 46.5583 3.17899C46.5583 3.90499 46.786 4.49349 47.2425 4.93899C47.6979 5.38779 48.2589 5.61219 48.9222 5.61219C49.6537 5.61219 50.2775 5.31739 50.7934 4.72889L51.3378 5.27339C51.0526 5.61319 50.6948 5.88469 50.2906 6.06759C49.8617 6.26529 49.3944 6.36549 48.9222 6.36129ZM54.5014 6.22599H53.7182V0.8855H52.0177V0.1364H56.202V0.8844H54.5014V6.22599ZM61.5744 0.1364L59.27 5.27339C58.9521 5.99829 58.4791 6.36129 57.851 6.36129C57.664 6.36129 57.4626 6.31729 57.2459 6.22489L57.4505 5.50219C57.5814 5.57589 57.7168 5.61219 57.8587 5.61219C58.0402 5.61219 58.1809 5.57809 58.2788 5.50549C58.3778 5.43399 58.4702 5.30529 58.5549 5.11829L58.776 4.63319L56.7268 0.1342H57.6452L59.15 3.63109H59.1831L60.6537 0.135301H61.5744V0.1364ZM62.46 6.22599V0.1375H66.8654V6.22599H66.0823V0.8855H63.2421V6.22599H62.46ZM68.2602 6.22599V0.1375H69.0424V2.74779H72.0861V0.1375H72.8692V6.22599H72.0861V3.47819H69.0424V6.22599H68.2602ZM79.2427 5.43949C78.6443 6.05439 77.8995 6.36239 77.0107 6.36239C76.1208 6.36239 75.3762 6.05439 74.78 5.43839C74.1805 4.82459 73.8823 4.07219 73.8823 3.18229C73.8823 2.29129 74.1805 1.53999 74.78 0.9251C75.3773 0.3091 76.1208 0.00110054 77.0107 0.00110054C77.8951 0.00110054 78.6376 0.311301 79.2393 0.929501C79.8399 1.54549 80.1403 2.29789 80.1403 3.18339C80.1403 4.07219 79.8411 4.82459 79.2427 5.43839V5.43949ZM75.3563 4.92909C75.8073 5.38559 76.3584 5.61329 77.0107 5.61329C77.6335 5.62599 78.2333 5.37789 78.6652 4.92909C79.1162 4.47259 79.3417 3.88959 79.3417 3.18009C79.3417 2.47169 79.1151 1.88979 78.6652 1.43329C78.2331 0.9847 77.6334 0.73671 77.0107 0.7491C76.3584 0.7491 75.8073 0.9768 75.3563 1.43329C74.9053 1.88979 74.6809 2.47279 74.6809 3.18119C74.6809 3.88959 74.9064 4.47259 75.3563 4.92909ZM83.3391 6.22599V0.1375H85.5402C86.0165 0.1375 86.4289 0.2948 86.7776 0.6094C87.1263 0.9251 87.3012 1.31999 87.3012 1.79629C87.3012 2.08559 87.2254 2.34079 87.0747 2.56189C86.9256 2.78249 86.7175 2.95669 86.4741 3.06459V3.09759C86.7744 3.19879 87.0207 3.37589 87.2143 3.62449C87.4057 3.87419 87.5036 4.16349 87.5036 4.49239C87.5036 4.99069 87.32 5.40539 86.9548 5.73319C86.6014 6.05739 86.1374 6.23409 85.6579 6.22709H83.3391V6.22599ZM84.1211 2.74779H85.5424C85.8383 2.74779 86.0748 2.65099 86.253 2.45409C86.4214 2.28229 86.5171 2.05229 86.5202 1.81169C86.5186 1.57359 86.4258 1.34529 86.2607 1.1737C86.0868 0.98079 85.836 0.87519 85.5764 0.8855H84.1211V2.74779ZM84.1211 5.47799H85.6953C85.974 5.48709 86.2423 5.37139 86.4268 5.16229C86.6046 4.97639 86.7048 4.72979 86.7073 4.47259C86.7038 4.21549 86.6 3.96999 86.418 3.78839C86.2226 3.58029 85.9464 3.46709 85.6611 3.47819H84.1211V5.47799Z" fill="white"/>
<path d="M0.470799 0.681246C0.175999 0.993646 0 1.47768 0 2.10688V24.5502C0 25.1783 0.174899 25.6634 0.470799 25.9758L0.5467 26.0484L13.1197 13.4754V13.1795L0.5467 0.606445L0.470799 0.681246Z" fill="url(#paint0_linear)"/>
<path d="M17.3071 17.6714L13.1172 13.4782V13.1812L17.3082 8.99023L17.4028 9.04413L22.3671 11.8656C23.785 12.6708 23.785 13.9908 22.3671 14.796L17.4028 17.6186L17.3071 17.6714Z" fill="url(#paint1_linear)"/>
<path d="M17.4033 17.6168L13.1165 13.3301L0.46875 25.9768C0.93625 26.4718 1.70735 26.5323 2.57745 26.0384L17.4033 17.6168Z" fill="url(#paint2_linear)"/>
<path d="M17.4033 9.04358L2.57745 0.619767C1.70735 0.125867 0.93625 0.186368 0.46875 0.681368L13.1155 13.3281L17.4033 9.04358Z" fill="url(#paint3_linear)"/>
<defs>
<linearGradient id="paint0_linear" x1="8.0071" y1="1.87088" x2="-2.77295" y2="12.6508" gradientUnits="userSpaceOnUse">
<stop stop-color="#00A0FF"/>
<stop offset="0.0066" stop-color="#00A1FF"/>
<stop offset="0.2601" stop-color="#00BEFF"/>
<stop offset="0.5122" stop-color="#00D2FF"/>
<stop offset="0.7604" stop-color="#00DFFF"/>
<stop offset="1" stop-color="#00E3FF"/>
</linearGradient>
<linearGradient id="paint1_linear" x1="24.215" y1="13.3313" x2="-0.340411" y2="13.3313" gradientUnits="userSpaceOnUse">
<stop stop-color="#FFE000"/>
<stop offset="0.4087" stop-color="#FFBD00"/>
<stop offset="0.7754" stop-color="#FFA500"/>
<stop offset="1" stop-color="#FF9C00"/>
</linearGradient>
<linearGradient id="paint2_linear" x1="15.0745" y1="17.3631" x2="-3.3308" y2="35.7682" gradientUnits="userSpaceOnUse">
<stop stop-color="#FF3A44"/>
<stop offset="1" stop-color="#C31162"/>
</linearGradient>
<linearGradient id="paint3_linear" x1="-2.71507" y1="-1.26794" x2="5.50355" y2="6.95078" gradientUnits="userSpaceOnUse">
<stop stop-color="#32A071"/>
<stop offset="0.0685" stop-color="#2DA771"/>
<stop offset="0.4762" stop-color="#15CF74"/>
<stop offset="0.8009" stop-color="#06E775"/>
<stop offset="1" stop-color="#00F076"/>
</linearGradient>
</defs>
</svg>
