<svg width="59" height="61" viewBox="0 0 59 61" fill="none" xmlns="http://www.w3.org/2000/svg">
<g filter="url(#filter0_d)">
<ellipse cx="29.4515" cy="28.0738" rx="17.4515" ry="18.0738" fill="#4D9221"/>
</g>
<path d="M30.3231 25.9514V24.6494C30.3231 24.4539 30.3334 24.3025 30.3541 24.1955C30.3748 24.0884 30.4219 23.9831 30.4949 23.8791C30.5678 23.7752 30.6859 23.7034 30.849 23.6637C31.0123 23.6238 31.2293 23.604 31.5003 23.604H32.9793V21H30.6148C29.2466 21 28.264 21.2857 27.6668 21.8572C27.0696 22.4288 26.771 23.2708 26.771 24.3834V25.9514H25V28.5555H26.7709V36.1111H30.3231V28.5556H32.6875L33 25.9514H30.3231Z" fill="white"/>
<defs>
<filter id="filter0_d" x="0" y="0" width="58.903" height="60.1475" filterUnits="userSpaceOnUse" color-interpolation-filters="sRGB">
<feFlood flood-opacity="0" result="BackgroundImageFix"/>
<feColorMatrix in="SourceAlpha" type="matrix" values="0 0 0 0 0 0 0 0 0 0 0 0 0 0 0 0 0 0 127 0"/>
<feMorphology radius="2" operator="dilate" in="SourceAlpha" result="effect1_dropShadow"/>
<feOffset dy="2"/>
<feGaussianBlur stdDeviation="5"/>
<feColorMatrix type="matrix" values="0 0 0 0 0 0 0 0 0 0 0 0 0 0 0 0 0 0 0.1 0"/>
<feBlend mode="normal" in2="BackgroundImageFix" result="effect1_dropShadow"/>
<feBlend mode="normal" in="SourceGraphic" in2="effect1_dropShadow" result="shape"/>
</filter>
</defs>
</svg>
