<svg width="27" height="26" viewBox="0 0 27 26" fill="none" xmlns="http://www.w3.org/2000/svg">
<path d="M22.9654 8.66663H3.92094M6.36081 22.75H20.5256C22.1824 22.75 23.5256 21.4068 23.5256 19.75V8.41663C23.5256 6.75977 22.1824 5.41663 20.5256 5.41663H6.36081C4.70396 5.41663 3.36081 6.75977 3.36081 8.41663V19.75C3.36081 21.4068 4.70395 22.75 6.36081 22.75Z" stroke="white" stroke-width="1.8" stroke-linecap="round"/>
<path d="M8.40198 5.41663V2.97913" stroke="white" stroke-width="1.8" stroke-linecap="round" stroke-linejoin="round"/>
<path d="M18.4844 5.41663V2.97913" stroke="white" stroke-width="1.8" stroke-linecap="round" stroke-linejoin="round"/>
<path d="M9.2422 18.9584H7.5618M9.2422 15.7084H7.5618M9.2422 12.4584H7.5618M14.2834 18.9584H12.603M14.2834 15.7084H12.603M14.2834 12.4584H12.603M19.3246 18.9584H17.6442M19.3246 15.7084H17.6442M19.3246 12.4584H17.6442" stroke="white" stroke-width="1.8" stroke-linecap="round"/>
</svg>
