<svg width="20" height="14" viewBox="0 0 20 14" fill="none" xmlns="http://www.w3.org/2000/svg">
<path d="M10.041 0.75C5.8569 0.75 2.28365 3.34167 0.835938 7C2.28365 10.6583 5.8569 13.25 10.041 13.25C14.2252 13.25 17.7984 10.6583 19.2461 7C17.7984 3.34167 14.2252 0.75 10.041 0.75ZM10.041 11.1667C7.73139 11.1667 5.8569 9.3 5.8569 7C5.8569 4.7 7.73139 2.83333 10.041 2.83333C12.3507 2.83333 14.2252 4.7 14.2252 7C14.2252 9.3 12.3507 11.1667 10.041 11.1667ZM10.041 4.5C8.6519 4.5 7.53056 5.61667 7.53056 7C7.53056 8.38333 8.6519 9.5 10.041 9.5C11.4302 9.5 12.5515 8.38333 12.5515 7C12.5515 5.61667 11.4302 4.5 10.041 4.5Z" fill="#9B9A9A"/>
</svg>
