<svg width="57" height="82" viewBox="0 0 57 82" fill="none" xmlns="http://www.w3.org/2000/svg">
<path d="M10.2762 45.3281V42.3063C10.2762 41.1617 9.59099 40.4062 8.44148 40.4062C7.86679 40.4062 7.22575 40.6122 6.78364 41.2533C6.45208 40.7038 5.96577 40.4062 5.2363 40.4062C4.75 40.4062 4.2637 40.5665 3.88791 41.1159V40.5206H2.87109V45.3281H3.88791V42.6726C3.88791 41.8255 4.33001 41.4134 4.99316 41.4134C5.6563 41.4134 6.00997 41.8713 6.00997 42.6726V45.3281H7.0268V42.6726C7.0268 41.8255 7.51311 41.4134 8.13204 41.4134C8.81734 41.4134 9.14891 41.8713 9.14891 42.6726V45.3281H10.2762ZM25.3738 40.4978H23.7159V39.0326H22.6992V40.4978H21.7708V41.4593H22.6992V43.6799C22.6992 44.7788 23.1412 45.4427 24.2907 45.4427C24.7328 45.4427 25.2191 45.2824 25.5507 45.0993L25.2633 44.1835C24.976 44.3895 24.6222 44.4354 24.3791 44.4354C23.8928 44.4354 23.6938 44.1377 23.6938 43.634V41.4821H25.3517V40.4978H25.3738ZM34.0168 40.4062C33.4421 40.4062 33.0442 40.7038 32.801 41.1159V40.5206H31.7842V45.3281H32.801V42.6039C32.801 41.8026 33.1326 41.3448 33.7737 41.3448C33.9726 41.3448 34.2158 41.3906 34.4147 41.4364L34.702 40.4291C34.5031 40.4062 34.2158 40.4062 34.0168 40.4062ZM20.9528 40.9099C20.4666 40.5665 19.7813 40.4062 19.0518 40.4062C17.8803 40.4062 17.1066 41.0014 17.1066 41.9629C17.1066 42.7641 17.6813 43.222 18.6982 43.3593L19.1844 43.4052C19.715 43.4967 20.0024 43.657 20.0024 43.9088C20.0024 44.2522 19.6045 44.5041 18.9413 44.5041C18.2782 44.5041 17.7256 44.2522 17.394 44.0004L16.9077 44.8016C17.4382 45.2137 18.1677 45.3968 18.8971 45.3968C20.2455 45.3968 21.0413 44.7329 21.0413 43.8401C21.0413 42.9931 20.4003 42.5353 19.4497 42.375L18.9635 42.3292C18.5213 42.2834 18.1897 42.1689 18.1897 41.8713C18.1897 41.5279 18.5213 41.3219 19.0739 41.3219C19.6486 41.3219 20.2455 41.5737 20.5329 41.7339L20.9528 40.9099ZM48.0313 40.4062C47.4566 40.4062 47.0587 40.7038 46.8155 41.1159V40.5206H45.7987V45.3281H46.8155V42.6039C46.8155 41.8026 47.1471 41.3448 47.7882 41.3448C47.987 41.3448 48.2303 41.3906 48.4292 41.4364L48.7165 40.4291C48.5176 40.4062 48.2303 40.4062 48.0313 40.4062ZM35.0336 42.9244C35.0336 44.3895 36.0062 45.4427 37.5093 45.4427C38.1946 45.4427 38.681 45.2824 39.1672 44.8932L38.681 44.0461C38.2831 44.3438 37.9072 44.5041 37.4652 44.5041C36.6473 44.5041 36.0505 43.9088 36.0505 42.9473C36.0505 42.0316 36.6252 41.4364 37.4652 41.3906C37.9072 41.3906 38.2831 41.5508 38.681 41.8485L39.1672 41.0014C38.681 40.5893 38.1946 40.4519 37.5093 40.4519C36.0062 40.4062 35.0336 41.4592 35.0336 42.9244ZM44.4503 42.9244V40.5206H43.4335V41.1159C43.1019 40.658 42.6155 40.4062 41.9745 40.4062C40.6704 40.4062 39.6536 41.4592 39.6536 42.9244C39.6536 44.3895 40.6704 45.4427 41.9745 45.4427C42.6598 45.4427 43.1461 45.1908 43.4335 44.7329V45.3281H44.4503V42.9244ZM40.7146 42.9244C40.7146 42.0773 41.2451 41.3677 42.1293 41.3677C42.9471 41.3677 43.544 42.0316 43.544 42.9244C43.544 43.7714 42.9693 44.4811 42.1293 44.4811C41.2451 44.4354 40.7146 43.7714 40.7146 42.9244ZM28.5349 40.4062C27.1864 40.4062 26.2138 41.4134 26.2138 42.9244C26.2138 44.4354 27.1864 45.4427 28.6011 45.4427C29.2864 45.4427 29.9495 45.2366 30.5021 44.7788L30.0159 44.0233C29.618 44.3208 29.1316 44.5269 28.6674 44.5269C28.0264 44.5269 27.4075 44.2293 27.2527 43.3822H30.701V42.9702C30.7232 41.4134 29.839 40.4062 28.5349 40.4062ZM28.5349 41.299C29.1759 41.299 29.5958 41.7111 29.7064 42.4437H27.2749C27.3632 41.8026 27.8054 41.299 28.5349 41.299ZM53.8227 42.9244V38.5977H52.8059V41.1159C52.4744 40.658 51.988 40.4062 51.347 40.4062C50.0428 40.4062 49.026 41.4592 49.026 42.9244C49.026 44.3895 50.0428 45.4427 51.347 45.4427C52.0323 45.4427 52.5185 45.1908 52.8059 44.7329V45.3281H53.8227V42.9244ZM50.065 42.9244C50.065 42.0773 50.5955 41.3677 51.4796 41.3677C52.2976 41.3677 52.8944 42.0316 52.8944 42.9244C52.8944 43.7714 52.3196 44.4811 51.4796 44.4811C50.6175 44.4354 50.065 43.7714 50.065 42.9244ZM16.0014 42.9244V40.5206H14.9845V41.1159C14.6529 40.658 14.1667 40.4062 13.5257 40.4062C12.2215 40.4062 11.2046 41.4592 11.2046 42.9244C11.2046 44.3895 12.2215 45.4427 13.5257 45.4427C14.2109 45.4427 14.6972 45.1908 14.9845 44.7329V45.3281H16.0014V42.9244ZM12.2215 42.9244C12.2215 42.0773 12.7519 41.3677 13.6361 41.3677C14.454 41.3677 15.0508 42.0316 15.0508 42.9244C15.0508 43.7714 14.4761 44.4811 13.6361 44.4811C12.7519 44.4354 12.2215 43.7714 12.2215 42.9244Z" fill="white"/>
<path d="M35.9176 3.86914H20.6211V32.3251H35.9176V3.86914Z" fill="#FF5F00"/>
<path d="M21.5964 18.0854C21.5964 12.3164 24.2269 7.1884 28.25 3.86892C25.288 1.46515 21.5522 0 17.4628 0C7.80301 0 0 8.08123 0 18.0854C0 28.0897 7.80301 36.171 17.4628 36.171C21.5301 36.171 25.2658 34.7058 28.2279 32.3021C24.2048 29.0513 21.5964 23.8774 21.5964 18.0854Z" fill="#EB001B"/>
<path d="M56.5209 18.0854C56.5209 28.0897 48.7178 36.171 39.058 36.171C34.9907 36.171 31.2549 34.7058 28.293 32.3021C32.3602 28.9826 34.9465 23.8545 34.9465 18.0854C34.9465 12.3164 32.316 7.1884 28.293 3.86892C31.2549 1.46515 34.9907 0 39.058 0C48.7178 0 56.5209 8.14991 56.5209 18.0854Z" fill="#F79E1B"/>
<path d="M24.032 81.322H19.5391L22.3493 63.3262H26.842L24.032 81.322Z" fill="white"/>
<path d="M40.3214 63.7661C39.4352 63.4021 38.0296 63 36.2916 63C31.8546 63 28.7302 65.4504 28.7111 68.9536C28.6742 71.5384 30.9481 72.9739 32.6487 73.8358C34.387 74.7164 34.9779 75.2912 34.9779 76.0762C34.9602 77.2818 33.5733 77.8375 32.2797 77.8375C30.4859 77.8375 29.5248 77.551 28.0642 76.8802L27.4725 76.5927L26.8438 80.6325C27.8975 81.1296 29.839 81.5709 31.8546 81.5902C36.5689 81.5902 39.6381 79.1777 39.6745 75.4445C39.6925 73.3958 38.4917 71.8261 35.9031 70.5435C34.3316 69.72 33.3693 69.1648 33.3693 68.3224C33.3878 67.5564 34.1833 66.7719 35.9572 66.7719C37.4178 66.7335 38.491 67.0972 39.3039 67.461L39.7103 67.6521L40.3214 63.7661Z" fill="white"/>
<path d="M46.2911 74.9467C46.6611 73.9129 48.085 69.9116 48.085 69.9116C48.0662 69.9501 48.4542 68.8587 48.676 68.1887L48.99 69.7394C48.99 69.7394 49.8409 74.0469 50.0257 74.9467C49.3234 74.9467 47.1786 74.9467 46.2911 74.9467ZM51.8371 63.3262H48.3618C47.2901 63.3262 46.4759 63.6514 46.0135 64.8193L39.3398 81.3217H44.0542C44.0542 81.3217 44.8303 79.1007 44.997 78.6223C45.5143 78.6223 50.1003 78.6223 50.7656 78.6223C50.8946 79.254 51.3017 81.3217 51.3017 81.3217H55.4618L51.8371 63.3262Z" fill="white"/>
<path d="M15.788 63.3262L11.388 75.5975L10.9071 73.1088C10.0936 70.2371 7.54237 67.117 4.69531 65.5656L8.72565 81.3029H13.4768L20.5389 63.3262H15.788Z" fill="white"/>
<path d="M7.30265 63.3262H0.0739547L0 63.6898C5.63884 65.1831 9.37336 68.7829 10.9077 73.1095L9.33626 64.8389C9.07748 63.6895 8.28249 63.3641 7.30265 63.3262Z" fill="white"/>
</svg>
