<svg width="59" height="61" viewBox="0 0 59 61" fill="none" xmlns="http://www.w3.org/2000/svg">
<g filter="url(#filter0_d)">
<ellipse cx="29.4515" cy="28.0738" rx="17.4515" ry="18.0738" fill="#4D9221"/>
</g>
<path d="M36.396 21.5665C35.9932 21.1888 35.5105 21 34.9482 21H23.0522C22.4897 21 22.0071 21.1888 21.6042 21.5665C21.2014 21.9441 21 22.3965 21 22.9238V34.0761C21 34.6033 21.2013 35.0559 21.6042 35.4335C22.0071 35.8111 22.4898 36 23.0522 36H34.948C35.5103 36 35.9931 35.8111 36.3959 35.4335C36.7988 35.0559 37 34.6033 37 34.0761V22.9238C37 22.3964 36.7988 21.9442 36.396 21.5665ZM26.745 26.4052C27.3734 25.8356 28.1287 25.5507 29.0106 25.5507C29.8994 25.5507 30.658 25.8356 31.2866 26.4052C31.9152 26.9749 32.2293 27.6634 32.2293 28.4707C32.2293 29.2778 31.9152 29.9664 31.2866 30.5359C30.658 31.1058 29.8997 31.3906 29.0106 31.3906C28.1287 31.3906 27.3735 31.1055 26.745 30.5359C26.1164 29.9664 25.8022 29.2778 25.8022 28.4707C25.8022 27.6634 26.1164 26.9749 26.745 26.4052ZM35.1878 33.6759C35.1878 33.845 35.1251 33.9866 35.0002 34.1006C34.875 34.2145 34.7259 34.2715 34.5521 34.2715H23.4168C23.2363 34.2715 23.0851 34.2145 22.9637 34.1006C22.8421 33.9868 22.7814 33.845 22.7814 33.6759V27.3475H24.2501C24.1112 27.7578 24.0418 28.1843 24.0418 28.6269C24.0418 29.8772 24.5279 30.943 25.5001 31.8254C26.4724 32.7074 27.6425 33.1486 29.0106 33.1486C29.9134 33.1486 30.7467 32.9467 31.5108 32.5431C32.2747 32.1392 32.8785 31.5908 33.3232 30.8974C33.7677 30.204 33.99 29.4471 33.99 28.6269C33.99 28.1843 33.9203 27.7579 33.7815 27.3476H35.1879V33.6759H35.1878V33.6759ZM35.1878 24.955C35.1878 25.1438 35.1183 25.3033 34.9792 25.4335C34.8404 25.5638 34.6703 25.6288 34.4688 25.6288H32.6564C32.4551 25.6288 32.2848 25.5637 32.146 25.4335C32.0071 25.3033 31.9377 25.1438 31.9377 24.955V23.3438C31.9377 23.1615 32.0071 23.0036 32.146 22.8701C32.2848 22.7367 32.4551 22.6699 32.6564 22.6699H34.4688C34.6703 22.6699 34.8404 22.7366 34.9792 22.8701C35.1183 23.0036 35.1878 23.1615 35.1878 23.3438V24.955Z" fill="white"/>
<defs>
<filter id="filter0_d" x="0" y="0" width="58.903" height="60.1475" filterUnits="userSpaceOnUse" color-interpolation-filters="sRGB">
<feFlood flood-opacity="0" result="BackgroundImageFix"/>
<feColorMatrix in="SourceAlpha" type="matrix" values="0 0 0 0 0 0 0 0 0 0 0 0 0 0 0 0 0 0 127 0"/>
<feMorphology radius="2" operator="dilate" in="SourceAlpha" result="effect1_dropShadow"/>
<feOffset dy="2"/>
<feGaussianBlur stdDeviation="5"/>
<feColorMatrix type="matrix" values="0 0 0 0 0 0 0 0 0 0 0 0 0 0 0 0 0 0 0.1 0"/>
<feBlend mode="normal" in2="BackgroundImageFix" result="effect1_dropShadow"/>
<feBlend mode="normal" in="SourceGraphic" in2="effect1_dropShadow" result="shape"/>
</filter>
</defs>
</svg>
