<svg width="26" height="28" viewBox="0 0 26 28" fill="none" xmlns="http://www.w3.org/2000/svg">
<g clip-path="url(#clip0)">
<path fill-rule="evenodd" clip-rule="evenodd" d="M6.9595 24.5539C6.9593 23.4563 7.8489 22.5664 8.94647 22.5662C10.0441 22.566 10.934 23.4556 10.9342 24.5531C10.9344 25.6507 10.0448 26.5406 8.9472 26.5408C7.84962 26.541 6.9597 25.6514 6.9595 24.5539Z" fill="#4BB742"/>
<path fill-rule="evenodd" clip-rule="evenodd" d="M17.8899 24.5519C17.8897 23.4543 18.7793 22.5644 19.8768 22.5642C20.9744 22.564 21.8643 23.4536 21.8645 24.5512C21.8647 25.6488 20.9751 26.5387 19.8776 26.5389C18.78 26.5391 17.8901 25.6495 17.8899 24.5519Z" fill="#4BB742"/>
<path fill-rule="evenodd" clip-rule="evenodd" d="M0.000181387 4.68178C8.12098e-05 4.13299 0.444881 3.68803 0.993669 3.68793L4.96834 3.6872C5.44195 3.68712 5.8498 4.0213 5.94283 4.48568L6.77815 8.65522L22.8553 8.65228C23.1514 8.65223 23.4322 8.78426 23.621 9.0124C23.8098 9.24054 23.887 9.54101 23.8316 9.83191L22.2418 18.1765C22.1056 18.8628 21.7324 19.4793 21.1875 19.9181C20.6453 20.3547 19.9675 20.5877 19.2717 20.577L9.63039 20.5787C8.93455 20.5897 8.25666 20.357 7.71431 19.9205C7.16947 19.4821 6.79612 18.8661 6.65956 18.1802C6.6595 18.1799 6.65961 18.1805 6.65956 18.1802L4.99808 9.8869C4.99134 9.85947 4.98574 9.83158 4.98134 9.80331L4.15421 5.67469L0.994031 5.67527C0.445243 5.67537 0.000281565 5.23057 0.000181387 4.68178ZM7.17628 10.6425L8.60858 17.7918C8.65405 18.0206 8.77853 18.226 8.96022 18.3722C9.14191 18.5184 9.36923 18.5961 9.60239 18.5916L9.62143 18.5914L19.2799 18.5896L19.2989 18.5898C19.5321 18.5942 19.7594 18.5165 19.941 18.3702C20.1218 18.2246 20.2459 18.0204 20.2918 17.7929L21.6546 10.6398L7.17628 10.6425Z" fill="#4BB742"/>
</g>
<path d="M23.4335 6.44346C23.7992 5.72454 23.4734 5.1816 23.2668 5.01024C22.7952 4.53512 22.226 4.29687 21.575 4.30204C21.5236 4.30238 21.4724 4.30918 21.421 4.31276C21.4751 4.24582 21.5266 4.17916 21.5743 4.11268C21.9178 3.63255 22.0366 3.16802 21.9275 2.73207C21.7605 2.0649 21.1141 1.73792 21.0865 1.72421L21.0737 1.71834C19.9548 1.24307 19.0045 2.26984 18.9646 2.31388L18.9302 2.36231C18.9171 2.38669 18.9054 2.41458 18.8926 2.43967C18.6756 1.90647 18.2887 1.52441 17.7414 1.30491C17.6096 1.23637 16.7778 0.84324 16.0137 1.43912C15.9192 1.51309 15.8377 1.60061 15.7628 1.69366C15.5007 1.67235 15.2203 1.7054 14.9653 1.85565C14.6189 2.06014 14.4372 2.42374 14.4791 2.8287C14.5236 3.25919 14.8178 3.62679 15.2284 3.76566C15.6041 3.89258 16.079 4.17099 16.5836 4.75312C16.3568 4.78168 16.1451 4.84777 15.9552 4.96122C14.8222 5.63623 11.3825 13.6204 10.9755 16.0739C10.9412 16.2808 11.0182 16.475 11.1768 16.5815C11.2819 16.652 11.4097 16.6749 11.5363 16.6501C11.6003 16.6375 11.664 16.6128 11.7243 16.576C13.8652 15.265 20.0178 9.09464 20.214 7.81501C20.2407 7.64018 20.235 7.46355 20.2026 7.2869C20.9231 7.47917 21.3321 7.72356 21.5621 7.93615C21.8972 8.24588 22.3671 8.38574 22.7921 8.30246L22.8057 8.29979C23.1592 8.22627 23.4417 8.00255 23.5815 7.68596C23.789 7.21469 23.5988 6.78725 23.3876 6.52469C23.4033 6.49735 23.4199 6.47051 23.4335 6.44346V6.44346ZM22.9337 5.36652C22.968 5.3968 23.2547 5.67183 23.0186 6.18092C23.0061 6.17096 22.9934 6.16226 22.9809 6.15265C22.9594 6.13594 22.9381 6.11999 22.9165 6.10389C22.8612 6.06229 22.8062 6.02267 22.7508 5.98522C22.7339 5.97356 22.7169 5.96202 22.7 5.9509C21.8057 5.36498 20.9048 5.30197 20.1284 5.45414C19.853 5.50809 19.5932 5.58909 19.3548 5.68265C19.3791 5.66547 19.4044 5.64811 19.4291 5.63108C19.4635 5.60723 19.498 5.58326 19.5333 5.55945C19.5714 5.53389 19.6101 5.50875 19.6494 5.4836C19.6822 5.46254 19.716 5.44182 19.7495 5.42106C19.8114 5.38312 19.8742 5.34575 19.9386 5.30932C19.9787 5.2865 20.0188 5.26376 20.0597 5.24212C20.0992 5.22097 20.1394 5.20044 20.1795 5.18007C20.2242 5.15767 20.2692 5.13621 20.3147 5.11513C20.3591 5.09445 20.404 5.07402 20.4493 5.05477C20.5127 5.02769 20.5767 5.00217 20.6413 4.97856C20.6761 4.96581 20.7111 4.95392 20.7462 4.94235C21.0207 4.85078 21.3017 4.79202 21.5794 4.78947C22.1006 4.78537 22.539 4.96988 22.9337 5.36652V5.36652ZM19.3458 2.62094C19.4668 2.49863 20.1453 1.8607 20.8738 2.16342C20.9237 2.1901 21.3485 2.43036 21.4535 2.85078C21.5263 3.14183 21.4332 3.4715 21.1766 3.83033C21.0263 4.04055 20.8355 4.25669 20.6094 4.47304C20.5783 4.48338 20.548 4.49604 20.5171 4.50712C20.4519 4.5303 20.3869 4.55343 20.323 4.57936C20.2787 4.59755 20.2358 4.61714 20.1922 4.63629C20.1421 4.65853 20.092 4.68052 20.043 4.70433C19.9971 4.72617 19.9522 4.74883 19.9076 4.77201C19.8626 4.79525 19.818 4.81862 19.774 4.84268C19.7283 4.86772 19.6832 4.89277 19.6387 4.91859C19.5987 4.94187 19.5596 4.96539 19.5208 4.9891C19.4749 5.01699 19.4291 5.04464 19.3846 5.07315C19.3545 5.09246 19.3257 5.11197 19.2962 5.13149C19.1046 5.25813 18.9283 5.38637 18.7717 5.50882C18.7696 5.51047 18.767 5.51255 18.7648 5.5142C18.8586 5.21379 18.95 4.86141 19.0132 4.48827C19.0171 4.46492 19.0218 4.44208 19.0254 4.41858C19.0359 4.35225 19.0441 4.28502 19.0525 4.21763C19.0571 4.18096 19.0624 4.14438 19.066 4.10745C19.0727 4.04376 19.077 3.98021 19.0813 3.91597C19.0841 3.87529 19.087 3.8347 19.0888 3.79389C19.0914 3.73111 19.0921 3.66837 19.0922 3.60552C19.0922 3.56382 19.0921 3.52238 19.0908 3.48059C19.0891 3.41866 19.0856 3.35698 19.0807 3.29566C19.079 3.27409 19.0793 3.25245 19.0774 3.23103C19.1612 3.00422 19.2494 2.80371 19.3458 2.62094V2.62094ZM16.3229 1.81676C16.8748 1.39358 17.4927 1.72455 17.5177 1.73832C17.5276 1.74388 17.5375 1.74865 17.5477 1.75279C17.982 1.92413 18.2751 2.21155 18.4436 2.63117C18.5156 2.81024 18.559 3.00429 18.5833 3.20567L18.5858 3.22753C18.6285 3.61021 18.5968 4.01942 18.5308 4.40696C18.4957 4.17573 18.4384 3.94169 18.3529 3.71161C18.3503 3.70441 18.3473 3.69752 18.3447 3.69064C18.3257 3.64092 18.3057 3.59152 18.2842 3.54208C18.271 3.51192 18.2567 3.48196 18.2424 3.45224C18.2306 3.42772 18.2188 3.40298 18.2061 3.37864C18.1855 3.33829 18.1639 3.29827 18.1412 3.25856C18.1351 3.24778 18.1285 3.237 18.1222 3.22628C17.9391 2.91482 17.6888 2.62371 17.3523 2.37184C17.343 2.36494 17.3336 2.35794 17.3243 2.35104C17.2764 2.31594 17.2275 2.28159 17.1762 2.24839C17.1514 2.23224 17.1251 2.21648 17.0993 2.20074C17.0601 2.17657 17.0214 2.15217 16.98 2.12921C16.9046 2.08663 16.8266 2.04536 16.7444 2.00602C16.7439 2.00567 16.7419 2.00461 16.741 2.00422C16.7187 1.99128 16.6696 1.96489 16.6006 1.93169C16.6001 1.93156 16.5998 1.93118 16.5992 1.93096C16.5289 1.89733 16.4383 1.85819 16.3324 1.82071C16.3288 1.81906 16.3261 1.81791 16.3229 1.81676V1.81676ZM15.3859 3.30395C15.1555 3.22614 14.9904 3.01969 14.9653 2.77802C14.955 2.67696 14.9583 2.4258 15.2139 2.27521C15.286 2.23246 15.3635 2.2052 15.4434 2.18954C15.5705 2.16463 15.7036 2.1703 15.832 2.19108C15.832 2.19108 15.8325 2.19121 15.8327 2.19117C15.8361 2.19174 15.8393 2.19257 15.8426 2.19314C15.8869 2.20067 15.9307 2.20942 15.9732 2.22021C15.9942 2.22559 16.014 2.23166 16.0345 2.23726C16.0688 2.24718 16.1029 2.25739 16.1349 2.26821C16.1476 2.27245 16.16 2.27671 16.1721 2.28105C16.3157 2.33316 16.4299 2.39017 16.4862 2.42016C16.4971 2.42618 16.5038 2.43012 16.5051 2.43053C16.5116 2.43451 16.5184 2.43789 16.5252 2.44125C16.645 2.49804 16.757 2.5607 16.863 2.62791C16.8932 2.64703 16.919 2.66803 16.9478 2.68777C17.021 2.73791 17.0929 2.78933 17.1594 2.84462C17.1885 2.86898 17.2144 2.89442 17.2417 2.91936C17.3036 2.97576 17.3632 3.03406 17.4184 3.09546C17.4401 3.11961 17.461 3.14401 17.4813 3.16854C17.5426 3.24272 17.6003 3.31983 17.6522 3.40076C17.6604 3.41324 17.6694 3.42569 17.6773 3.43832C17.9338 3.85378 18.072 4.35535 18.0881 4.94131C18.0993 5.34738 18.0483 5.72795 17.9877 6.02634C17.9188 5.88894 17.8489 5.7601 17.7792 5.63548C17.7677 5.6147 17.7557 5.59491 17.7441 5.57439C17.6795 5.46106 17.6145 5.35296 17.5497 5.24996C17.5386 5.23256 17.5279 5.21477 17.5167 5.19739C16.7455 3.99654 15.9657 3.49965 15.3859 3.30395V3.30395ZM19.731 7.74163C19.6719 8.12536 18.9238 9.08332 17.886 10.2272C17.8639 10.2229 17.842 10.2175 17.8182 10.2195C17.4181 10.2534 16.8714 10.151 16.5516 9.84568C16.4542 9.75254 16.299 9.75646 16.206 9.8536C16.1125 9.95085 16.1159 10.1051 16.2136 10.1982C16.5532 10.5219 17.0313 10.6651 17.4483 10.7021C16.7938 11.4026 16.0579 12.1487 15.3201 12.8631C15.2781 12.8388 15.231 12.823 15.1791 12.8272C14.928 12.8486 14.586 12.7857 14.3885 12.5975C14.2911 12.5046 14.1366 12.5079 14.0429 12.6056C13.9496 12.7028 13.953 12.8571 14.0507 12.9502C14.2755 13.1646 14.5829 13.267 14.8623 13.3024C13.503 14.5927 12.1991 15.7137 11.4691 16.1606C11.4643 16.1636 11.4597 16.166 11.4565 16.1681C11.4566 16.1639 11.4571 16.1588 11.458 16.1532C11.5501 15.5979 11.773 14.8301 12.0739 13.9604C12.0842 13.9672 12.0918 13.9766 12.1033 13.9821C12.3002 14.0744 12.5047 14.148 12.7107 14.2007C12.7472 14.21 12.784 14.2107 12.8187 14.2039C12.9081 14.1864 12.9841 14.1194 13.0086 14.0255C13.0423 13.8949 12.9638 13.7621 12.8332 13.7289C12.6564 13.6836 12.481 13.6203 12.3115 13.5411C12.2849 13.5287 12.2571 13.5235 12.2294 13.5212C12.6075 12.4755 13.0802 11.3155 13.571 10.2039C13.7088 10.4229 13.9066 10.6329 14.1621 10.7469C14.2099 10.7684 14.2608 10.7731 14.3089 10.7637C14.3841 10.7489 14.4513 10.6993 14.4851 10.6241C14.5403 10.5013 14.4854 10.3571 14.3623 10.3021C14.1126 10.1906 13.9254 9.89876 13.8505 9.65879C13.8464 9.64539 13.8372 9.63557 13.8311 9.62335C14.2163 8.77539 14.603 7.97712 14.9556 7.30424C15.1473 7.67583 15.4613 8.06447 15.891 8.25604C15.9388 8.27741 15.9898 8.28219 16.0377 8.27279C16.1131 8.25802 16.1805 8.20826 16.2141 8.13315C16.2692 8.01023 16.2144 7.86625 16.0912 7.81123C15.6868 7.6307 15.3853 7.1647 15.266 6.78318C15.2628 6.77308 15.2556 6.76578 15.2513 6.75645C15.6657 6.01032 16.0094 5.49737 16.2066 5.37968C16.316 5.31454 16.4336 5.26968 16.5609 5.24473C16.6813 5.22114 16.8107 5.21535 16.9501 5.22738C17.1021 5.44431 17.2492 5.68367 17.3908 5.94142C17.4001 5.95828 17.4093 5.97481 17.4183 5.99193C17.4774 6.10098 17.5351 6.2143 17.5922 6.32999C17.6051 6.35609 17.6179 6.38064 17.6308 6.40717C17.6971 6.54487 17.7624 6.68623 17.8257 6.83267C17.8299 6.84237 17.8366 6.85022 17.842 6.85934C17.8471 6.86794 17.8514 6.87738 17.8577 6.88532C17.8594 6.88767 17.8609 6.89017 17.8629 6.89246C17.8684 6.89911 17.8753 6.90367 17.8814 6.90941C17.8829 6.9109 17.8844 6.91229 17.8862 6.91371C17.8932 6.92006 17.8993 6.92725 17.9069 6.9328C17.9086 6.93393 17.9099 6.93535 17.9116 6.93658L17.9118 6.93654C17.9127 6.93704 17.9135 6.93743 17.9143 6.93773C17.9223 6.9432 17.9315 6.94655 17.9403 6.95107C17.9423 6.95213 17.9442 6.953 17.9462 6.95417C17.9534 6.95768 17.96 6.9623 17.9675 6.96508C17.9704 6.9663 17.9735 6.9667 17.9767 6.96752C17.9829 6.96957 17.9892 6.97056 17.9956 6.972C18.0015 6.97329 18.0071 6.97365 18.013 6.97472C18.021 6.97595 18.0283 6.97899 18.0364 6.97943C18.1811 6.98728 18.3222 6.99709 18.4604 7.00846C18.4917 7.01103 18.5211 7.01423 18.5517 7.01693C18.6601 7.02644 18.7673 7.03673 18.8714 7.04842C18.8981 7.05134 18.9234 7.05455 18.9497 7.05788C19.0584 7.07092 19.1651 7.08465 19.2684 7.09995C19.2863 7.10259 19.3041 7.10514 19.3218 7.10783C19.4406 7.12602 19.5565 7.14523 19.668 7.16642C19.6683 7.16636 19.6684 7.16655 19.6688 7.16649C19.7395 7.36223 19.7602 7.55134 19.731 7.74163V7.74163ZM23.1338 7.48985C23.0363 7.71131 22.8476 7.79301 22.7064 7.82213C22.7035 7.8227 22.7007 7.82325 22.6977 7.82382C22.4237 7.87752 22.1166 7.78377 21.8941 7.57809C21.4733 7.18937 20.8019 6.90207 19.8972 6.71582C19.8957 6.71545 19.8944 6.71413 19.8925 6.71382C19.8825 6.71177 19.8716 6.7102 19.8616 6.70815C19.783 6.69225 19.7012 6.67775 19.619 6.66358C19.5479 6.65112 19.4758 6.6392 19.4021 6.62783C19.3272 6.61646 19.2518 6.6052 19.1737 6.59489C19.0669 6.58061 18.9566 6.56824 18.8449 6.55636C18.803 6.55184 18.7646 6.54607 18.7219 6.54191C18.7399 6.53045 18.7604 6.51871 18.779 6.50713C18.7859 6.50377 18.7937 6.50404 18.8001 6.50031C19.495 6.08152 20.7236 5.56743 21.9841 6.11792C22.0493 6.14651 22.1146 6.18144 22.1799 6.21604C22.2113 6.23247 22.2426 6.24579 22.2739 6.26368C22.4731 6.3778 22.6728 6.52078 22.8708 6.69617L22.9091 6.73068C22.9103 6.73167 22.9119 6.73194 22.9127 6.73299C23.0162 6.82821 23.2925 7.1301 23.1338 7.48985V7.48985Z" fill="#429F3A"/>
<defs>
<clipPath id="clip0">
<rect width="23.848" height="23.848" fill="white" transform="translate(0 3.68811) rotate(-0.0104589)"/>
</clipPath>
</defs>
</svg>
