<svg width="22" height="20" viewBox="0 0 22 20" fill="none" xmlns="http://www.w3.org/2000/svg">
<path d="M18.0195 12.9289C16.8698 11.8398 15.5013 11.0335 14.0083 10.5454C15.6074 9.50199 16.658 7.75578 16.658 5.78125C16.658 2.59348 13.9204 0 10.5555 0C7.19067 0 4.45312 2.59348 4.45312 5.78125C4.45312 7.75578 5.50368 9.50199 7.1028 10.5454C5.60977 11.0335 4.24135 11.8398 3.09166 12.9289C1.09798 14.8177 0 17.3289 0 20H1.6493C1.6493 15.3475 5.64462 11.5625 10.5555 11.5625C15.4665 11.5625 19.4618 15.3475 19.4618 20H21.1111C21.1111 17.3289 20.0131 14.8177 18.0195 12.9289ZM10.5555 10C8.1001 10 6.10242 8.1075 6.10242 5.78125C6.10242 3.455 8.1001 1.5625 10.5555 1.5625C13.011 1.5625 15.0087 3.455 15.0087 5.78125C15.0087 8.1075 13.011 10 10.5555 10Z" fill="#676667"/>
</svg>
