<svg width="28" height="28" viewBox="0 0 28 28" fill="none" xmlns="http://www.w3.org/2000/svg">
<path d="M24.6158 10.5028C25.2118 9.33095 24.6807 8.44598 24.344 8.16668C23.5753 7.39223 22.6475 7.0039 21.5864 7.01232C21.5027 7.01288 21.4191 7.02397 21.3355 7.0298C21.4235 6.9207 21.5075 6.81204 21.5853 6.70368C22.1451 5.92107 22.3388 5.16391 22.161 4.45333C21.8887 3.36586 20.8352 2.83289 20.7902 2.81054L20.7694 2.80097C18.9455 2.0263 17.3966 3.69991 17.3315 3.77169L17.2755 3.85063C17.2541 3.89037 17.235 3.93583 17.2141 3.97672C16.8605 3.10763 16.2299 2.48487 15.3377 2.1271C15.123 2.01539 13.7671 1.37459 12.5217 2.34586C12.3677 2.46642 12.2348 2.60908 12.1127 2.76075C11.6855 2.72602 11.2284 2.77988 10.8128 3.02479C10.2481 3.3581 9.95197 3.95075 10.0203 4.61082C10.0929 5.31251 10.5724 5.91168 11.2416 6.13804C11.854 6.34492 12.6281 6.79872 13.4505 7.74757C13.081 7.79412 12.7359 7.90184 12.4263 8.08677C10.5795 9.18701 4.9729 22.201 4.30954 26.2001C4.25373 26.5374 4.37918 26.8539 4.6376 27.0274C4.80906 27.1423 5.01724 27.1797 5.22368 27.1392C5.32805 27.1188 5.43184 27.0786 5.53008 27.0185C9.01976 24.8816 19.0482 14.8241 19.3679 12.7384C19.4115 12.4534 19.4023 12.1655 19.3495 11.8776C20.5239 12.1909 21.1904 12.5893 21.5654 12.9358C22.1115 13.4407 22.8775 13.6686 23.5703 13.5329L23.5924 13.5285C24.1686 13.4087 24.6291 13.044 24.8569 12.528C25.1951 11.7598 24.8851 11.0631 24.5408 10.6352C24.5665 10.5906 24.5935 10.5469 24.6158 10.5028V10.5028ZM23.801 8.74739C23.8569 8.79675 24.3243 9.24504 23.9394 10.0748C23.919 10.0586 23.8984 10.0444 23.8779 10.0288C23.843 10.0015 23.8083 9.97553 23.773 9.94929C23.6829 9.88148 23.5932 9.81689 23.503 9.75585C23.4753 9.73685 23.4477 9.71804 23.4202 9.69992C21.9625 8.74489 20.494 8.64219 19.2284 8.89021C18.7796 8.97816 18.3561 9.11017 17.9675 9.26268C18.0071 9.23468 18.0484 9.20637 18.0886 9.17862C18.1448 9.13974 18.2009 9.10068 18.2586 9.06187C18.3206 9.0202 18.3836 8.97923 18.4478 8.93823C18.5012 8.9039 18.5563 8.87013 18.6109 8.83629C18.7118 8.77444 18.8142 8.71355 18.9192 8.65417C18.9845 8.61696 19.0499 8.57989 19.1165 8.54462C19.1808 8.51015 19.2465 8.4767 19.3118 8.44349C19.3847 8.40697 19.458 8.372 19.5321 8.33763C19.6046 8.30392 19.6778 8.27064 19.7515 8.23924C19.8549 8.19511 19.9593 8.15351 20.0645 8.11504C20.1213 8.09425 20.1784 8.07487 20.2355 8.05601C20.6829 7.90675 21.1409 7.81098 21.5935 7.80683C22.4432 7.80013 23.1576 8.10089 23.801 8.74739V8.74739ZM17.9528 4.27219C18.1501 4.07283 19.2561 3.03302 20.4435 3.52645C20.5247 3.56992 21.2172 3.96155 21.3884 4.64682C21.507 5.12122 21.3553 5.65858 20.937 6.24346C20.692 6.58611 20.3811 6.9384 20.0125 7.29106C19.9619 7.3079 19.9124 7.32853 19.862 7.34661C19.7557 7.38438 19.6498 7.42208 19.5457 7.46435C19.4735 7.49399 19.4035 7.52592 19.3325 7.55715C19.2508 7.59339 19.1692 7.62924 19.0893 7.66805C19.0146 7.70364 18.9414 7.74058 18.8685 7.77835C18.7952 7.81624 18.7226 7.85433 18.6508 7.89355C18.5764 7.93437 18.5029 7.9752 18.4303 8.01729C18.365 8.05523 18.3015 8.09357 18.2381 8.13222C18.1633 8.17767 18.0886 8.22273 18.0161 8.26921C17.967 8.30068 17.9201 8.33248 17.872 8.36431C17.5598 8.57073 17.2723 8.77975 17.0172 8.97934C17.0137 8.98203 17.0094 8.98542 17.0059 8.98811C17.1587 8.49845 17.3077 7.92408 17.4107 7.31588C17.4171 7.27781 17.4248 7.24059 17.4307 7.20228C17.4477 7.09417 17.4611 6.98458 17.4749 6.87475C17.4823 6.81497 17.4909 6.75534 17.4969 6.69514C17.5078 6.59133 17.5147 6.48775 17.5218 6.38305C17.5263 6.31674 17.5311 6.25058 17.534 6.18406C17.5382 6.08173 17.5394 5.97946 17.5396 5.87702C17.5396 5.80905 17.5393 5.7415 17.5373 5.67338C17.5345 5.57244 17.5287 5.4719 17.5208 5.37196C17.518 5.3368 17.5185 5.30152 17.5154 5.26662C17.652 4.89692 17.7957 4.5701 17.9528 4.27219V4.27219ZM13.0256 2.9614C13.9252 2.27163 14.9324 2.8111 14.9732 2.83354C14.9892 2.84261 15.0054 2.85038 15.0221 2.85713C15.73 3.1364 16.2078 3.60489 16.4823 4.28887C16.5997 4.58074 16.6704 4.89704 16.7101 5.22527L16.7141 5.26092C16.7837 5.88466 16.7321 6.55166 16.6245 7.18334C16.5672 6.80644 16.4738 6.42497 16.3346 6.04994C16.3302 6.03821 16.3253 6.02697 16.3211 6.01577C16.2902 5.93472 16.2576 5.85419 16.2225 5.77362C16.201 5.72445 16.1777 5.67562 16.1543 5.62718C16.1351 5.58721 16.1159 5.54688 16.0952 5.50722C16.0616 5.44145 16.0263 5.3762 15.9894 5.31148C15.9795 5.29391 15.9688 5.27634 15.9584 5.25887C15.6601 4.7512 15.252 4.2767 14.7035 3.86615C14.6883 3.85492 14.6731 3.8435 14.6579 3.83226C14.5798 3.77505 14.5002 3.71906 14.4164 3.66494C14.376 3.63861 14.3332 3.61294 14.2912 3.58727C14.2272 3.54788 14.1642 3.50811 14.0967 3.47067C13.9739 3.40128 13.8466 3.33401 13.7127 3.26988C13.7119 3.26932 13.7086 3.26759 13.7072 3.26695C13.6707 3.24586 13.5908 3.20284 13.4783 3.14874C13.4775 3.14853 13.477 3.14789 13.476 3.14754C13.3615 3.09273 13.2137 3.02893 13.0411 2.96783C13.0353 2.96514 13.0309 2.96327 13.0256 2.9614V2.9614ZM11.4984 5.38547C11.1228 5.25864 10.8538 4.92214 10.8128 4.52822C10.796 4.3635 10.8014 3.95412 11.218 3.70866C11.3356 3.63898 11.4619 3.59454 11.5921 3.56901C11.7993 3.52842 12.0162 3.53766 12.2255 3.57153C12.2255 3.57153 12.2263 3.57174 12.2267 3.57167C12.2321 3.5726 12.2373 3.57395 12.2428 3.57488C12.315 3.58715 12.3864 3.60142 12.4556 3.61901C12.4899 3.62778 12.5221 3.63767 12.5555 3.6468C12.6115 3.66298 12.667 3.67961 12.7193 3.69725C12.7398 3.70415 12.7602 3.71109 12.7799 3.71817C13.014 3.80312 13.2 3.89605 13.2918 3.94492C13.3096 3.95473 13.3206 3.96115 13.3227 3.96183C13.3333 3.96831 13.3443 3.97382 13.3554 3.97929C13.5506 4.07186 13.7333 4.174 13.9061 4.28354C13.9553 4.31471 13.9973 4.34894 14.0442 4.38111C14.1636 4.46284 14.2807 4.54666 14.389 4.63677C14.4365 4.67649 14.4788 4.71794 14.5233 4.7586C14.6241 4.85054 14.7213 4.94555 14.8113 5.04563C14.8466 5.08499 14.8807 5.12477 14.9138 5.16476C15.0137 5.28567 15.1078 5.41136 15.1925 5.54327C15.2058 5.56362 15.2203 5.5839 15.2333 5.6045C15.6513 6.28168 15.8766 7.09922 15.9029 8.05432C15.9212 8.71619 15.838 9.33651 15.7393 9.82288C15.6268 9.59893 15.513 9.38892 15.3993 9.1858C15.3806 9.15193 15.3611 9.11966 15.3422 9.08621C15.2369 8.90149 15.1309 8.72529 15.0252 8.5574C15.0073 8.52904 14.9897 8.50005 14.9715 8.47172C13.7146 6.51437 12.4434 5.70445 11.4984 5.38547V5.38547ZM18.5808 12.6187C18.4844 13.2442 17.2651 14.8057 15.5734 16.6701C15.5375 16.6632 15.5017 16.6543 15.4629 16.6575C14.8109 16.7128 13.9198 16.546 13.3984 16.0483C13.2396 15.8965 12.9867 15.9028 12.8351 16.0612C12.6827 16.2197 12.6883 16.4712 12.8474 16.6229C13.401 17.1505 14.1803 17.3839 14.8601 17.4442C13.7932 18.586 12.5938 19.8021 11.3912 20.9665C11.3227 20.9269 11.2459 20.9012 11.1613 20.9081C10.752 20.9429 10.1946 20.8404 9.87262 20.5336C9.71391 20.3822 9.46204 20.3876 9.3094 20.5469C9.15733 20.7053 9.16275 20.9568 9.32206 21.1085C9.68844 21.458 10.1896 21.6249 10.6449 21.6826C8.42927 23.7858 6.30404 25.613 5.11413 26.3414C5.1063 26.3463 5.09886 26.3503 5.0935 26.3537C5.09378 26.3467 5.09456 26.3385 5.09604 26.3293C5.24616 25.4242 5.6095 24.1728 6.09998 22.7551C6.11678 22.7662 6.12913 22.7816 6.14787 22.7905C6.46885 22.941 6.80214 23.061 7.13787 23.1468C7.1973 23.1619 7.2573 23.1631 7.31397 23.152C7.45969 23.1234 7.58359 23.0143 7.62341 22.8612C7.67838 22.6484 7.55041 22.4318 7.3375 22.3777C7.04944 22.3039 6.76352 22.2009 6.48728 22.0717C6.44383 22.0514 6.3985 22.043 6.35336 22.0393C6.96969 20.3349 7.74011 18.4441 8.54021 16.6321C8.76479 16.9891 9.08717 17.3314 9.50355 17.5173C9.58151 17.5523 9.66451 17.5599 9.74283 17.5445C9.8655 17.5205 9.97502 17.4396 10.0301 17.3171C10.1201 17.1169 10.0306 16.8819 9.82988 16.7923C9.4229 16.6105 9.11786 16.1348 8.9957 15.7437C8.98904 15.7218 8.97403 15.7058 8.96409 15.6859C9.59203 14.3037 10.2223 13.0026 10.7971 11.9058C11.1095 12.5115 11.6213 13.145 12.3217 13.4572C12.3997 13.4921 12.4827 13.4998 12.5608 13.4845C12.6837 13.4604 12.7935 13.3793 12.8483 13.2569C12.9381 13.0566 12.8488 12.8219 12.6481 12.7322C11.9888 12.4379 11.4974 11.6784 11.303 11.0565C11.2978 11.04 11.2859 11.0281 11.2789 11.0129C11.9544 9.79676 12.5146 8.96067 12.8361 8.76884C13.0143 8.66267 13.2062 8.58955 13.4137 8.54888C13.6099 8.51043 13.8208 8.50099 14.048 8.52061C14.2958 8.87418 14.5355 9.26434 14.7664 9.68446C14.7814 9.71194 14.7964 9.73889 14.8112 9.76678C14.9074 9.94453 15.0016 10.1293 15.0946 10.3178C15.1156 10.3604 15.1364 10.4004 15.1575 10.4436C15.2656 10.6681 15.372 10.8985 15.4752 11.1372C15.482 11.153 15.4929 11.1658 15.5017 11.1806C15.5101 11.1947 15.5171 11.2101 15.5273 11.223C15.5301 11.2268 15.5325 11.2309 15.5358 11.2346C15.5447 11.2455 15.556 11.2529 15.5659 11.2623C15.5684 11.2647 15.5709 11.2669 15.5739 11.2693C15.5852 11.2796 15.5952 11.2913 15.6076 11.3004C15.6103 11.3022 15.6124 11.3045 15.6152 11.3065L15.6155 11.3065C15.617 11.3073 15.6184 11.3079 15.6196 11.3084C15.6326 11.3173 15.6476 11.3228 15.662 11.3302C15.6653 11.3319 15.6683 11.3333 15.6716 11.3352C15.6833 11.3409 15.6941 11.3485 15.7063 11.353C15.7111 11.355 15.7162 11.3556 15.7214 11.357C15.7313 11.3603 15.7417 11.3619 15.752 11.3643C15.7618 11.3664 15.7708 11.367 15.7805 11.3687C15.7935 11.3707 15.8054 11.3757 15.8186 11.3764C16.0544 11.3892 16.2844 11.4052 16.5097 11.4237C16.5608 11.4279 16.6086 11.4331 16.6586 11.4375C16.8353 11.453 17.01 11.4698 17.1796 11.4888C17.2232 11.4936 17.2644 11.4988 17.3073 11.5043C17.4844 11.5255 17.6583 11.5479 17.8268 11.5728C17.856 11.5771 17.8849 11.5813 17.9138 11.5857C18.1074 11.6153 18.2963 11.6466 18.478 11.6812C18.4785 11.6811 18.4788 11.6814 18.4793 11.6813C18.5946 12.0003 18.6284 12.3086 18.5808 12.6187V12.6187ZM24.1272 12.2084C23.9683 12.5693 23.6606 12.7025 23.4305 12.75C23.4258 12.7509 23.4212 12.7518 23.4164 12.7527C22.9698 12.8403 22.4692 12.6874 22.1065 12.3522C21.4206 11.7186 20.3262 11.2503 18.8516 10.9467C18.8491 10.9461 18.8471 10.944 18.844 10.9435C18.8277 10.9401 18.81 10.9376 18.7936 10.9342C18.6655 10.9083 18.5323 10.8847 18.3982 10.8616C18.2823 10.8413 18.1648 10.8218 18.0446 10.8033C17.9226 10.7848 17.7996 10.7664 17.6724 10.7496C17.4983 10.7263 17.3185 10.7062 17.1365 10.6868C17.0682 10.6794 17.0055 10.67 16.936 10.6632C16.9652 10.6446 16.9987 10.6254 17.029 10.6066C17.0402 10.6011 17.0529 10.6015 17.0634 10.5954C18.1961 9.91283 20.1987 9.07488 22.2533 9.97215C22.3595 10.0188 22.466 10.0757 22.5725 10.1321C22.6236 10.1589 22.6746 10.1806 22.7257 10.2097C23.0503 10.3958 23.3758 10.6288 23.6985 10.9147L23.761 10.9709C23.763 10.9726 23.7654 10.973 23.7669 10.9747C23.9355 11.1299 24.3859 11.622 24.1272 12.2084V12.2084Z" fill="#429F3A"/>
</svg>
