<svg width="22" height="43" viewBox="0 0 22 43" fill="none" xmlns="http://www.w3.org/2000/svg">
<path fill-rule="evenodd" clip-rule="evenodd" d="M8.83095 0C13.5234 1.66508 15.343 5.92922 14.2896 12.7924C9.51298 9.35269 7.29941 5.19729 8.83095 0ZM21.406 6.06392C17.9449 6.42906 15.9765 8.96564 15.0323 12.9896C19.3753 11.8763 21.4999 9.56773 21.406 6.06392Z" fill="#209041"/>
<path fill-rule="evenodd" clip-rule="evenodd" d="M16.0079 26.7412C17.2215 26.9847 18.6219 27.3815 19.804 27.603C20.8015 27.7929 20.753 27.8659 21.0175 26.7899C22.52 20.7942 19.1122 14.7741 13.4109 13.3451C8.96189 12.2326 4.4304 14.2458 1.93529 18.0312C1.26782 19.0463 1.20714 18.9806 2.26538 19.353C3.53721 19.801 4.8333 20.2148 6.11484 20.6481C7.01312 19.5536 8.27573 18.8219 9.66974 18.5879C11.0637 18.3539 12.4951 18.6334 13.6998 19.3748C14.9044 20.1162 15.8011 21.2696 16.2245 22.6221C16.6478 23.9746 16.5691 25.435 16.0031 26.7339L16.0079 26.7412Z" fill="#ED6B06"/>
<path fill-rule="evenodd" clip-rule="evenodd" d="M5.98905 43.0005L16.9112 33.1195H16.9258C18.1487 32.1683 19.1647 30.9762 19.9112 29.6165C20.3966 28.7231 20.4524 28.7888 19.5641 28.4748C18.3991 28.0659 16.9501 27.6472 15.7608 27.2357C15.0648 28.4866 13.9372 29.4392 12.5899 29.9146C11.2427 30.3899 9.76867 30.3551 8.44521 29.8167C7.12175 29.2783 6.04004 28.2735 5.40355 26.9912C4.76705 25.709 4.61965 24.2376 4.98907 22.854C5.1323 22.3148 5.35219 21.7991 5.64197 21.3228C4.44296 21.0477 3.21482 20.7337 2.05464 20.5146C0.702721 20.2711 0.729419 20.1543 0.355638 21.6319C-0.23602 23.9587 -0.0866419 26.4128 0.782817 28.6501C1.36048 30.2446 1.32893 30.2933 2.86774 30.841C4.28762 31.3425 5.96721 31.71 7.12496 32.343C5.97206 32.3113 4.32646 31.8147 2.92842 31.5518C1.35562 31.2548 1.78523 31.4252 2.30221 32.8542L5.98905 43.0005Z" fill="#209041"/>
</svg>
