<svg width="22" height="22" viewBox="0 0 22 22" fill="none" xmlns="http://www.w3.org/2000/svg">
<path opacity="0.5" fill-rule="evenodd" clip-rule="evenodd" d="M21.1167 12.1539V8.9833H18.3129C18.1134 7.97341 17.7146 7.03398 17.1632 6.20024L19.1341 4.22744L16.8934 1.98455L14.9225 3.95735C14.0895 3.40543 13.151 3.00618 12.1421 2.7948V0H8.9746V2.7948C7.95396 3.00618 7.01544 3.40543 6.1825 3.95735L4.21161 1.98455L1.97089 4.22744L3.94178 6.20024C3.3904 7.03398 2.99153 7.97341 2.7921 8.9833H0V12.1539H2.7921C3.00326 13.1638 3.40213 14.1032 3.95352 14.9369L1.97089 16.9215L4.21161 19.1644L6.19423 17.1798C7.02717 17.7317 7.96569 18.131 8.9746 18.3306V21.1372H12.1421V18.3306C13.151 18.131 14.0778 17.7317 14.9107 17.1798L16.8934 19.1644L19.1341 16.9215L17.1515 14.9369C17.7028 14.1032 18.1017 13.1638 18.3129 12.1539H21.1167V12.1539ZM10.5584 15.3244C7.93062 15.3244 5.80725 13.1872 5.80725 10.5686C5.80725 7.93815 7.93062 5.81268 10.5584 5.81268C13.1745 5.81268 15.3096 7.93815 15.3096 10.5686C15.3096 13.1872 13.1745 15.3244 10.5584 15.3244V15.3244Z" fill="white"/>
</svg>
