<svg width="57" height="19" viewBox="0 0 57 19" fill="none" xmlns="http://www.w3.org/2000/svg">
<path d="M25.0291 18.3876H20.5361L23.3463 0.391846H27.839L25.0291 18.3876Z" fill="white"/>
<path d="M41.3165 0.831671C40.4303 0.467614 39.0247 0.0655518 37.2867 0.0655518C32.8498 0.0655518 29.7253 2.51594 29.7062 6.01916C29.6693 8.60391 31.9432 10.0395 33.6438 10.9013C35.3821 11.782 35.973 12.3568 35.973 13.1418C35.9553 14.3473 34.5684 14.9031 33.2748 14.9031C31.4811 14.9031 30.5199 14.6166 29.0593 13.9458L28.4676 13.6583L27.8389 17.698C28.8926 18.1952 30.8341 18.6364 32.8497 18.6557C37.5641 18.6557 40.6332 16.2432 40.6696 12.51C40.6876 10.4614 39.4868 8.89165 36.8982 7.60903C35.3268 6.78559 34.3644 6.23036 34.3644 5.38791C34.3829 4.622 35.1784 3.83749 36.9524 3.83749C38.4129 3.79907 39.4861 4.16272 40.2991 4.52657L40.7054 4.71764L41.3165 0.831671Z" fill="white"/>
<path d="M47.2882 12.0124C47.6582 10.9785 49.082 6.97731 49.082 6.97731C49.0633 7.01573 49.4513 5.92439 49.6731 5.25442L49.9871 6.80504C49.9871 6.80504 50.8379 11.1126 51.0227 12.0124C50.3205 12.0124 48.1756 12.0124 47.2882 12.0124ZM52.8342 0.391846H49.3589C48.2871 0.391846 47.473 0.717068 47.0106 1.88494L40.3369 18.3873H45.0512C45.0512 18.3873 45.8274 16.1663 45.9941 15.6879C46.5114 15.6879 51.0973 15.6879 51.7627 15.6879C51.8917 16.3197 52.2988 18.3873 52.2988 18.3873H56.4588L52.8342 0.391846Z" fill="white"/>
<path d="M16.7836 0.391846L12.3836 12.6632L11.9027 10.1745C11.0893 7.30274 8.53798 4.18269 5.69092 2.63124L9.72125 18.3685H14.4724L21.5345 0.391846H16.7836Z" fill="white"/>
<path d="M8.29728 0.391846H1.06858L0.994629 0.75549C6.63346 2.2488 10.368 5.84857 11.9023 10.1752L10.3309 1.90457C10.0721 0.755182 9.27712 0.429749 8.29728 0.391846Z" fill="white"/>
</svg>
