<svg width="23" height="22" viewBox="0 0 23 22" fill="none" xmlns="http://www.w3.org/2000/svg">
<path d="M17.5869 15.5394C16.0598 15.5394 14.8174 16.778 14.8174 18.3004C14.8174 19.8227 16.0598 21.0613 17.5869 21.0613C19.114 21.0613 20.3565 19.8227 20.3565 18.3004C20.3565 16.778 19.114 15.5394 17.5869 15.5394ZM17.5869 19.4047C16.976 19.4047 16.4791 18.9094 16.4791 18.3004C16.4791 17.6913 16.976 17.196 17.5869 17.196C18.1979 17.196 18.6947 17.6913 18.6947 18.3004C18.6947 18.9094 18.1979 19.4047 17.5869 19.4047Z" fill="#676667"/>
<path d="M22.0353 4.86856C21.878 4.66785 21.6367 4.55078 21.3811 4.55078H5.12871L4.38092 1.43173C4.29147 1.05902 3.95716 0.795898 3.57274 0.795898H0.830867C0.371964 0.795855 0 1.16666 0 1.62414C0 2.08162 0.371964 2.45243 0.830867 2.45243H2.91693L5.61725 13.7161C5.7067 14.0891 6.04101 14.3519 6.42542 14.3519H19.3593C19.7413 14.3519 20.0742 14.0924 20.1658 13.7229L22.1876 5.57809C22.2488 5.33076 22.1926 5.06928 22.0353 4.86856ZM18.7093 12.6954H7.08124L5.52584 6.20735H20.3195L18.7093 12.6954Z" fill="#676667"/>
<path d="M7.53321 15.5394C6.00606 15.5394 4.76367 16.778 4.76367 18.3004C4.76367 19.8227 6.0061 21.0613 7.53321 21.0613C9.06032 21.0613 10.3028 19.8227 10.3028 18.3004C10.3028 16.778 9.06032 15.5394 7.53321 15.5394ZM7.53321 19.4047C6.92226 19.4047 6.4254 18.9094 6.4254 18.3004C6.4254 17.6913 6.92226 17.196 7.53321 17.196C8.14417 17.196 8.64103 17.6913 8.64103 18.3004C8.64103 18.9094 8.14417 19.4047 7.53321 19.4047Z" fill="#676667"/>
</svg>
