<svg width="31" height="24" viewBox="0 0 31 24" fill="none" xmlns="http://www.w3.org/2000/svg">
<path d="M0 0.959961V2.19996H17.4181C17.6652 2.19996 17.98 2.5148 17.98 2.76184V19.56H11.7219C11.4264 17.8017 9.8982 16.46 8.06 16.46C6.2218 16.46 4.69359 17.8017 4.39813 19.56H1.86C1.51609 19.56 1.24 19.2839 1.24 18.94V13.36H0V18.94C0 19.9596 0.840391 20.8 1.86 20.8H4.39813C4.69359 22.5582 6.2218 23.9 8.06 23.9C9.8982 23.9 11.4264 22.5582 11.7219 20.8H21.1381C21.4336 22.5582 22.9618 23.9 24.8 23.9C26.6382 23.9 28.1664 22.5582 28.4619 20.8H29.14C29.6559 20.8 30.1088 20.5675 30.4381 20.2381C30.7675 19.9087 31 19.4558 31 18.94V12.9918C31 12.2943 30.7336 11.655 30.4963 11.1706C30.2589 10.6862 30.0119 10.3375 30.0119 10.3375V10.3181L27.4738 6.90808H27.4544V6.88871C26.9046 6.2009 26.023 5.29996 24.8 5.29996H19.84C19.6172 5.29996 19.4138 5.34113 19.22 5.41621V2.76184C19.22 1.76887 18.4111 0.959961 17.4181 0.959961H0ZM0 3.43996V4.67996H11.16V3.43996H0ZM0 5.91996V7.15996H9.3V5.91996H0ZM19.84 6.53996H22.32V12.12C22.32 12.6358 22.5525 13.0887 22.8819 13.4181C23.2113 13.7475 23.6641 13.98 24.18 13.98H29.76V18.94C29.76 19.0441 29.6825 19.2112 29.5469 19.3468C29.4113 19.4825 29.2441 19.56 29.14 19.56H28.4619C28.1664 17.8017 26.6382 16.46 24.8 16.46C22.9618 16.46 21.4336 17.8017 21.1381 19.56H19.22V7.15996C19.22 7.05582 19.2975 6.88871 19.4331 6.75308C19.5688 6.61746 19.7359 6.53996 19.84 6.53996ZM23.56 6.53996H24.8C25.311 6.53996 26.023 7.11394 26.4663 7.66371L29.0044 11.0543L29.0238 11.0737C29.0359 11.0907 29.203 11.328 29.3919 11.7131C29.5493 12.0328 29.6316 12.413 29.6825 12.74H24.18C24.0759 12.74 23.9088 12.6625 23.7731 12.5268C23.6375 12.3912 23.56 12.2241 23.56 12.12V6.53996ZM0 8.39996V9.63996H7.44V8.39996H0ZM0 10.88V12.12H5.58V10.88H0ZM8.06 17.7C9.43805 17.7 10.54 18.8019 10.54 20.18C10.54 21.558 9.43805 22.66 8.06 22.66C6.68195 22.66 5.58 21.558 5.58 20.18C5.58 18.8019 6.68195 17.7 8.06 17.7ZM24.8 17.7C26.178 17.7 27.28 18.8019 27.28 20.18C27.28 21.558 26.178 22.66 24.8 22.66C23.422 22.66 22.32 21.558 22.32 20.18C22.32 18.8019 23.422 17.7 24.8 17.7Z" fill="#429F3A"/>
</svg>
