<svg width="24" height="23" viewBox="0 0 24 23" fill="none" xmlns="http://www.w3.org/2000/svg">
<path d="M20.5 7.66675H3.5M6 20.1251H18C19.6569 20.1251 21 18.7819 21 17.1251V7.79175C21 6.13489 19.6569 4.79175 18 4.79175H6C4.34315 4.79175 3 6.13489 3 7.79175V17.1251C3 18.7819 4.34315 20.1251 6 20.1251Z" stroke="#429F3A" stroke-width="1.8" stroke-linecap="round"/>
<path d="M7.5 4.79175V2.6355" stroke="#429F3A" stroke-width="1.8" stroke-linecap="round" stroke-linejoin="round"/>
<path d="M16.5 4.79175V2.6355" stroke="#429F3A" stroke-width="1.8" stroke-linecap="round" stroke-linejoin="round"/>
<path d="M8.25 16.7708H6.75M8.25 13.8958H6.75M8.25 11.0208H6.75M12.75 16.7708H11.25M12.75 13.8958H11.25M12.75 11.0208H11.25M17.25 16.7708H15.75M17.25 13.8958H15.75M17.25 11.0208H15.75" stroke="#429F3A" stroke-width="1.8" stroke-linecap="round"/>
</svg>
