<svg width="22" height="15" viewBox="0 0 22 15" fill="none" xmlns="http://www.w3.org/2000/svg">
<path opacity="0.5" fill-rule="evenodd" clip-rule="evenodd" d="M0 14.0915H21.1166V0H0V14.0915ZM9.44388 8.80711C9.27964 9.14765 9.05674 9.44121 8.78692 9.67607C8.51709 9.91092 8.20034 10.0988 7.8484 10.2162C7.48472 10.3454 7.08585 10.4041 6.65178 10.4041C6.11214 10.4041 5.61941 10.3219 5.19708 10.1458C4.76301 9.95789 4.39934 9.7113 4.10605 9.40598C3.80103 9.08893 3.57813 8.71317 3.41389 8.29043C3.26138 7.86769 3.17926 7.40973 3.17926 6.91653C3.17926 6.42334 3.26138 5.95363 3.41389 5.51915C3.57813 5.09642 3.80103 4.72065 4.10605 4.39185C4.39934 4.0748 4.76301 3.8282 5.19708 3.64032C5.61941 3.46418 6.11214 3.37024 6.65178 3.37024C7.03892 3.37024 7.4026 3.41721 7.75455 3.53464C8.09476 3.64032 8.39978 3.79298 8.68133 3.9926C8.95116 4.20397 9.17406 4.45057 9.35003 4.75588C9.53773 5.06119 9.64332 5.40173 9.69024 5.78923H8.18861C8.16515 5.62484 8.10649 5.47218 8.01264 5.33127C7.91879 5.17861 7.80147 5.06119 7.66069 4.9555C7.53165 4.84982 7.36741 4.76762 7.20317 4.70891C7.01546 4.63845 6.83949 4.61497 6.65178 4.61497C6.29984 4.61497 6.00655 4.67368 5.76019 4.80285C5.51383 4.93202 5.31439 5.10816 5.16188 5.33127C5.00937 5.54264 4.90379 5.78923 4.8334 6.07106C4.76301 6.34114 4.72782 6.62297 4.72782 6.91653C4.72782 7.2101 4.76301 7.48018 4.8334 7.75026C4.90379 8.0086 5.00937 8.2552 5.16188 8.46657C5.31439 8.67794 5.51383 8.85408 5.76019 8.98325C6.00655 9.11242 6.29984 9.17113 6.65178 9.17113C7.12105 9.17113 7.49645 9.04196 7.75455 8.76014C8.02437 8.47831 8.18861 8.11429 8.24727 7.66807H9.7489C9.71371 8.0908 9.60812 8.46657 9.44388 8.80711V8.80711ZM17.6441 8.81893C17.4799 9.15947 17.2687 9.4413 16.9989 9.67616C16.7291 9.92276 16.4124 10.0989 16.0487 10.2281C15.685 10.3572 15.2862 10.416 14.8521 10.416C14.3125 10.416 13.8315 10.3338 13.3974 10.1459C12.9634 9.96973 12.5997 9.72313 12.3064 9.40607C12.0131 9.10076 11.7785 8.72498 11.626 8.30224C11.4618 7.8795 11.3796 7.42153 11.3796 6.92833C11.3796 6.42339 11.4618 5.96542 11.626 5.53093C11.7785 5.09644 12.0131 4.72067 12.3064 4.40362C12.5997 4.08656 12.9634 3.82822 13.3974 3.65207C13.8315 3.46419 14.3125 3.38199 14.8521 3.38199C15.2392 3.38199 15.6029 3.42896 15.9548 3.53465C16.295 3.64033 16.6118 3.80473 16.8816 4.00436C17.1514 4.20399 17.3861 4.46233 17.562 4.76764C17.738 5.06122 17.8436 5.4135 17.8905 5.80102H16.3889C16.3654 5.62487 16.3068 5.47222 16.2129 5.3313C16.1191 5.19039 16.0135 5.07296 15.8727 4.95553C15.7319 4.84984 15.5677 4.76764 15.4035 4.70893C15.2275 4.65022 15.0398 4.62673 14.8521 4.62673C14.5002 4.62673 14.2069 4.68544 13.9605 4.81462C13.7259 4.94379 13.5265 5.11993 13.374 5.3313C13.2215 5.55442 13.1041 5.80102 13.0337 6.0711C12.9751 6.35293 12.9399 6.63476 12.9399 6.92833C12.9399 7.21016 12.9751 7.49199 13.0337 7.75033C13.1041 8.02041 13.2215 8.26701 13.374 8.47839C13.5265 8.68976 13.7259 8.8659 13.9605 8.99507C14.2069 9.1125 14.5002 9.18296 14.8521 9.18296C15.3214 9.18296 15.6968 9.04204 15.9666 8.77196C16.2364 8.49013 16.3889 8.1261 16.4476 7.67987H17.9492C17.914 8.09087 17.8084 8.47839 17.6441 8.81893V8.81893Z" fill="white"/>
</svg>
