<svg width="57" height="81" viewBox="0 0 57 81" fill="none" xmlns="http://www.w3.org/2000/svg">
<path d="M35.906 32.3154H20.625V3.86523H35.906V32.3154Z" fill="#6C6BBD"/>
<path d="M21.5968 18.0902C21.5968 12.3269 24.2026 7.18117 28.2655 3.86503C25.2846 1.44081 21.5526 0 17.4674 0C7.81729 0 0 8.09596 0 18.0902C0 28.0844 7.81729 36.1803 17.4674 36.1803C21.5526 36.1803 25.2846 34.7394 28.2655 32.3153C24.2026 28.9991 21.5968 23.8763 21.5968 18.0902Z" fill="#D32011"/>
<path d="M56.5311 18.0902C56.5311 28.0844 48.7148 36.1803 39.0646 36.1803C34.979 36.1803 31.2473 34.7394 28.2656 32.3153C32.3293 28.9991 34.9351 23.8533 34.9351 18.0902C34.9351 12.3269 32.3293 7.18117 28.2656 3.86503C31.2473 1.44081 34.979 0 39.0646 0C48.7148 0 56.5311 8.09596 56.5311 18.0902Z" fill="#0099DF"/>
<path d="M41.0737 40.365C41.2722 40.365 41.5594 40.4107 41.8027 40.5022L41.4935 41.4856C41.2722 41.3941 41.0737 41.3713 40.8523 41.3713C40.1902 41.3713 39.8591 41.8058 39.8591 42.6062V45.2821H38.8658V40.4794H39.8591V41.074C40.1244 40.6395 40.4993 40.365 41.0737 40.365ZM37.3421 41.4399H35.6857V43.6126C35.6857 44.0928 35.8402 44.413 36.3478 44.413C36.6131 44.413 36.9442 44.3215 37.2314 44.1386L37.5186 45.0305C37.2094 45.2591 36.7009 45.3964 36.2601 45.3964C35.0674 45.3964 34.6476 44.7331 34.6476 43.6126V41.4171H33.6982V40.4794H34.6476V39.0156H35.6637V40.4794H37.3191V41.4399H37.3421ZM24.4234 42.4691C24.5338 41.783 24.9313 41.3026 25.6599 41.3026C26.3003 41.3026 26.7199 41.7143 26.8304 42.4691H24.4234ZM27.8903 42.8807C27.8903 41.3941 26.9849 40.365 25.6821 40.365C24.313 40.365 23.3634 41.3941 23.3634 42.8807C23.3634 44.413 24.357 45.3964 25.7483 45.3964C26.4549 45.3964 27.0953 45.2135 27.6474 44.7331L27.1616 43.9555C26.7641 44.2757 26.2783 44.4587 25.8145 44.4587C25.1742 44.4587 24.5779 44.1386 24.4234 43.2924H27.8682C27.8903 43.1551 27.8903 43.0179 27.8903 42.8807ZM32.329 41.7143C32.0418 41.5314 31.4674 41.3026 30.894 41.3026C30.3415 41.3026 30.0104 41.5085 30.0104 41.8744C30.0104 42.1946 30.3635 42.286 30.8052 42.3547L31.2909 42.4233C32.3071 42.5834 32.9034 43.0179 32.9034 43.8641C32.9034 44.7789 32.1306 45.4421 30.7833 45.4421C30.0324 45.4421 29.3253 45.2363 28.7739 44.8246L29.2595 44.0013C29.5906 44.2757 30.0982 44.5045 30.8052 44.5045C31.4893 44.5045 31.8653 44.2986 31.8653 43.9098C31.8653 43.6354 31.6 43.4982 31.0486 43.4067L30.5619 43.338C29.5248 43.178 28.9504 42.6977 28.9504 41.9201C28.9504 40.9596 29.7013 40.3879 30.8711 40.3879C31.6 40.3879 32.2851 40.548 32.7708 40.891L32.329 41.7143ZM44.7615 41.3484C44.563 41.3484 44.3636 41.3941 44.1871 41.4627C44.0106 41.5314 43.856 41.6457 43.7234 41.783C43.5907 41.9201 43.481 42.0802 43.4142 42.2632C43.3484 42.4461 43.3035 42.652 43.3035 42.8807C43.3035 43.1094 43.3484 43.3152 43.4142 43.4982C43.481 43.6811 43.5907 43.8412 43.7234 43.9785C43.856 44.1156 44.0106 44.2301 44.1871 44.2986C44.3636 44.3672 44.563 44.413 44.7615 44.413C44.9599 44.413 45.1594 44.3672 45.3359 44.2986C45.5124 44.2301 45.667 44.1156 45.7996 43.9785C45.9322 43.8412 46.0419 43.6811 46.1087 43.4982C46.1745 43.3152 46.2184 43.1094 46.2184 42.8807C46.2184 42.652 46.1745 42.4461 46.1087 42.2632C46.0419 42.0802 45.9322 41.9201 45.7996 41.783C45.667 41.6457 45.5124 41.5314 45.3359 41.4627C45.1813 41.3941 44.9819 41.3484 44.7615 41.3484ZM44.7615 40.365C45.1145 40.365 45.4456 40.4336 45.7547 40.5708C46.0639 40.7081 46.3291 40.8681 46.5505 41.0968C46.7709 41.3256 46.9474 41.6 47.08 41.8973C47.2127 42.2175 47.2785 42.5376 47.2785 42.9036C47.2785 43.2695 47.2127 43.6126 47.08 43.9098C46.9474 44.2071 46.7709 44.4815 46.5505 44.7103C46.3291 44.939 46.0639 45.122 45.7547 45.2363C45.4456 45.3736 45.1145 45.4192 44.7615 45.4192C44.4085 45.4192 44.0764 45.3506 43.7672 45.2363C43.4581 45.099 43.1938 44.939 42.9724 44.7103C42.7521 44.4815 42.5755 44.2071 42.4429 43.9098C42.3103 43.5896 42.2445 43.2695 42.2445 42.9036C42.2445 42.5376 42.3103 42.1945 42.4429 41.8973C42.5755 41.6 42.7521 41.3256 42.9724 41.0968C43.1938 40.8681 43.4581 40.6851 43.7672 40.5708C44.0764 40.4107 44.4085 40.365 44.7615 40.365ZM18.5272 42.8807C18.5272 42.0345 19.0573 41.3484 19.9406 41.3484C20.7797 41.3484 21.3317 42.0116 21.3317 42.8807C21.3317 43.7497 20.7576 44.413 19.9406 44.413C19.0793 44.413 18.5272 43.7269 18.5272 42.8807ZM22.3035 42.8807V40.4794H21.2876V41.074C20.9564 40.6395 20.4927 40.365 19.8301 40.365C18.5272 40.365 17.5115 41.4171 17.5115 42.8807C17.5115 44.3444 18.5272 45.3964 19.8301 45.3964C20.4927 45.3964 20.9784 45.122 21.2876 44.6874V45.2821H22.3035V42.8807ZM16.6061 45.2821V42.2632C16.6061 41.1197 15.8994 40.365 14.7733 40.365C14.177 40.365 13.5587 40.548 13.1391 41.2112C12.83 40.6851 12.3221 40.365 11.6154 40.365C11.1296 40.365 10.6438 40.525 10.2463 41.074V40.4794H9.23047V45.2821H10.2463V42.6291C10.2463 41.8058 10.6879 41.3484 11.3725 41.3484C12.035 41.3484 12.3883 41.8058 12.3883 42.6062V45.2821H13.4042V42.6291C13.4042 41.8058 13.8679 41.3484 14.5303 41.3484C15.2149 41.3484 15.5461 41.8058 15.5461 42.6062V45.2821H16.6061Z" fill="white"/>
<path fill-rule="evenodd" clip-rule="evenodd" d="M42.1055 72.0645V80.5574H46.6608V75.5245H51.8245C53.9974 75.5078 55.8433 74.0701 56.5394 72.0645H42.1055Z" fill="white"/>
<path fill-rule="evenodd" clip-rule="evenodd" d="M41.5 65.0654C41.7653 68.5369 44.9365 71.2778 48.8097 71.2778C48.8227 71.2778 56.7317 71.2778 56.7317 71.2778C56.7895 70.9595 56.8204 70.6309 56.8204 70.2949C56.8204 67.4193 54.5807 65.0867 51.8094 65.0655L41.5 65.0654Z" fill="white"/>
<path fill-rule="evenodd" clip-rule="evenodd" d="M34.7581 71.1952L34.7611 71.1874L34.7621 71.1875C34.809 71.1006 34.8977 71.042 35.0004 71.042C35.149 71.042 35.2697 71.1644 35.2737 71.3172V80.4786H39.83V65.0654H35.2737C34.6963 65.0854 34.0441 65.5244 33.8007 66.0634L30.1758 74.1157C30.1668 74.1487 30.1529 74.1794 30.1339 74.2069L30.1329 74.2096V74.2095C30.0781 74.2912 29.9863 74.3448 29.8826 74.3448C29.7151 74.3448 29.5795 74.2039 29.5795 74.0302V65.0654H25.0234V80.4786H29.5795V80.4769C30.1509 80.4459 30.7881 80.0118 31.0275 79.4807L34.7481 71.216C34.7511 71.209 34.7541 71.202 34.7581 71.1952Z" fill="white"/>
<path fill-rule="evenodd" clip-rule="evenodd" d="M17.7435 71.4587L15.0808 80.4786H11.8034L9.13907 71.4532C9.11334 71.3087 8.99108 71.1993 8.84409 71.1993C8.67845 71.1993 8.54412 71.3383 8.54412 71.5098C8.54412 71.5112 8.54413 71.5125 8.54423 71.5138L8.54412 80.4786H3.98828V65.0654H7.89872H9.06339C9.90166 65.0654 10.7801 65.7392 11.0251 66.5691L13.2423 74.0798C13.3527 74.4536 13.5316 74.4532 13.6418 74.0798L15.859 66.5691C16.1042 65.7386 16.9824 65.0654 17.8208 65.0654H18.985H22.8952V80.4786H18.3393V71.5138C18.3393 71.5125 18.3393 71.5112 18.3393 71.5098C18.3393 71.3383 18.205 71.1993 18.0394 71.1993C17.8906 71.1993 17.767 71.3115 17.7435 71.4587Z" fill="white"/>
</svg>
