<svg width="20" height="20" viewBox="0 0 20 20" fill="none" xmlns="http://www.w3.org/2000/svg">
<path d="M19.36 18.2168L14.6 13.2662C15.8239 11.8113 16.4945 9.98069 16.4945 8.07499C16.4945 3.62251 12.872 0 8.41947 0C3.96699 0 0.344482 3.62251 0.344482 8.07499C0.344482 12.5275 3.96699 16.15 8.41947 16.15C10.091 16.15 11.6839 15.6458 13.0457 14.6888L17.8419 19.677C18.0424 19.8852 18.312 20 18.601 20C18.8745 20 19.1339 19.8957 19.3309 19.7061C19.7494 19.3034 19.7627 18.6357 19.36 18.2168ZM8.41947 2.10652C11.7106 2.10652 14.3879 4.78391 14.3879 8.07499C14.3879 11.3661 11.7106 14.0435 8.41947 14.0435C5.12839 14.0435 2.451 11.3661 2.451 8.07499C2.451 4.78391 5.12839 2.10652 8.41947 2.10652Z" fill="#429F3A"/>
</svg>
