<svg width="18" height="18" viewBox="0 0 18 18" fill="none" xmlns="http://www.w3.org/2000/svg">
<path d="M17.4241 16.3951L13.14 11.9395C14.2415 10.6301 14.8451 8.98262 14.8451 7.26749C14.8451 3.26026 11.5848 0 7.57756 0C3.57032 0 0.310059 3.26026 0.310059 7.26749C0.310059 11.2747 3.57032 14.535 7.57756 14.535C9.08194 14.535 10.5155 14.0812 11.7412 13.2199L16.0578 17.7093C16.2382 17.8967 16.4809 18 16.7409 18C16.9871 18 17.2206 17.9062 17.3979 17.7355C17.7745 17.3731 17.7865 16.7721 17.4241 16.3951ZM7.57756 1.89587C10.5395 1.89587 12.9492 4.30552 12.9492 7.26749C12.9492 10.2295 10.5395 12.6391 7.57756 12.6391C4.61558 12.6391 2.20593 10.2295 2.20593 7.26749C2.20593 4.30552 4.61558 1.89587 7.57756 1.89587Z" fill="#676667"/>
</svg>
