<svg width="97" height="86" viewBox="0 0 97 86" fill="none" xmlns="http://www.w3.org/2000/svg">
<path fill-rule="evenodd" clip-rule="evenodd" d="M28.2762 63.3652C27.899 60.7772 29.6913 58.3734 32.2793 57.9963C34.8673 57.6191 37.2711 59.4113 37.6483 61.9994C38.0255 64.5874 36.2332 66.9912 33.6452 67.3683C31.0571 67.7455 28.6534 65.9533 28.2762 63.3652Z" fill="white"/>
<path fill-rule="evenodd" clip-rule="evenodd" d="M54.0491 59.6091C53.672 57.0211 55.4642 54.6173 58.0523 54.2402C60.6403 53.863 63.0441 55.6552 63.4212 58.2433C63.7984 60.8313 62.0062 63.2351 59.4181 63.6122C56.8301 63.9894 54.4263 62.1972 54.0491 59.6091Z" fill="white"/>
<path fill-rule="evenodd" clip-rule="evenodd" d="M5.04557 18.8951C4.85698 17.6011 5.75311 16.3992 7.04712 16.2107L16.4192 14.8448C17.536 14.682 18.6124 15.3301 18.9911 16.3931L22.3919 25.9383L60.3009 20.4135C60.9992 20.3117 61.7065 20.5267 62.23 20.9998C62.7535 21.473 63.0387 22.155 63.0079 22.86L62.1232 43.0823C62.0376 44.7472 61.3691 46.329 60.2348 47.5507C59.1062 48.7664 57.5879 49.5485 55.9434 49.7619L33.2098 53.0751C31.5728 53.3399 29.8944 53.0237 28.4657 52.1807C27.0305 51.3339 25.9387 50.0094 25.3813 48.439C25.3811 48.4384 25.3815 48.4397 25.3813 48.439L18.6172 29.4535C18.5918 29.3912 18.5691 29.3273 18.549 29.2622L15.1816 19.8107L7.73006 20.8967C6.43604 21.0853 5.23416 20.1892 5.04557 18.8951ZM24.0127 30.4876L29.8438 46.8543C30.0296 47.3781 30.3936 47.8198 30.8722 48.1022C31.3508 48.3846 31.9135 48.4897 32.4617 48.399L32.5066 48.392L55.2807 45.0729L55.3257 45.0668C55.877 44.9972 56.3863 44.736 56.7644 44.3287C57.1407 43.9234 57.3632 43.3991 57.3934 42.847L58.1518 25.5122L24.0127 30.4876Z" fill="white"/>
<path d="M96.6311 70.1775C80.7504 67.6898 73.4364 65.871 47.2498 70.1775C21.0633 74.4839 8.04591 82.3142 1.80084 84.739C0.714873 78.1355 21.0633 70.3246 47.2498 66.0181C73.4364 61.7117 95.5451 63.5739 96.6311 70.1775Z" fill="white"/>
<path d="M60.906 15.0071C61.5215 13.1864 60.5669 12.018 60.0209 11.6848C58.7457 10.7263 57.3218 10.3599 55.7886 10.5955C55.6675 10.6139 55.549 10.6476 55.4292 10.6736C55.5336 10.4972 55.6322 10.3224 55.722 10.1492C56.367 8.89919 56.4878 7.76304 56.081 6.7725C55.458 5.25665 53.8217 4.70746 53.752 4.68459L53.7198 4.67514C50.9181 3.9385 49.0298 6.68579 48.9508 6.80334L48.8864 6.92932C48.8637 6.99133 48.8457 7.0611 48.8241 7.12466C48.1296 5.94183 47.0861 5.17371 45.7201 4.84399C45.386 4.72758 43.2896 4.08608 41.6924 5.75341C41.495 5.96025 41.3328 6.1946 41.188 6.43974C40.5628 6.47944 39.9128 6.65362 39.3631 7.09543C38.6164 7.69652 38.3128 8.61625 38.5506 9.55676C38.8034 10.5566 39.6232 11.3224 40.639 11.509C41.5684 11.6793 42.7838 12.1728 44.1735 13.3723C43.6487 13.5174 43.1721 13.7459 42.7632 14.0787C40.3232 16.0592 34.9526 36.0666 34.835 41.9916C34.8253 42.4913 35.0734 42.9228 35.4838 43.1194C35.756 43.2495 36.0651 43.2597 36.3552 43.1577C36.5019 43.1061 36.6436 43.0261 36.773 42.9185C41.3715 39.0925 53.7615 22.431 53.7849 19.3463C53.7879 18.9248 53.7139 18.5103 53.5769 18.1049C55.3419 18.3109 56.39 18.7469 57.0054 19.1692C57.9017 19.7846 59.0579 19.9531 60.0315 19.6108L60.0626 19.5998C60.8709 19.3052 61.4604 18.6807 61.6813 17.8862C62.0087 16.7037 61.4136 15.7611 60.8254 15.2144C60.8531 15.1446 60.8831 15.0756 60.906 15.0071V15.0071ZM59.3576 12.6392C59.4489 12.6989 60.2195 13.249 59.8374 14.5305C59.8045 14.5113 59.7716 14.4951 59.7387 14.4767C59.6825 14.4447 59.6268 14.4144 59.5702 14.3839C59.4256 14.3047 59.2822 14.2302 59.1388 14.1609C59.0948 14.1392 59.0509 14.1178 59.0073 14.0974C56.6974 13.0227 54.5514 13.1834 52.7728 13.8087C52.142 14.0304 51.5571 14.3106 51.027 14.613C51.0785 14.5642 51.1322 14.5145 51.1846 14.4659C51.2576 14.3978 51.3306 14.3295 51.4058 14.2612C51.4868 14.1879 51.5694 14.1153 51.6535 14.0425C51.7236 13.9816 51.7962 13.9211 51.8681 13.8607C52.0009 13.75 52.1363 13.6403 52.2757 13.5323C52.3623 13.4647 52.4492 13.3973 52.538 13.3323C52.6238 13.2689 52.7118 13.2067 52.7992 13.1449C52.897 13.0767 52.9958 13.0107 53.0957 12.9453C53.1935 12.8813 53.2923 12.8177 53.3924 12.7568C53.5326 12.6712 53.6749 12.589 53.819 12.5112C53.8968 12.4692 53.9753 12.4291 54.054 12.3898C54.6698 12.0797 55.3123 11.8447 55.9661 11.7434C57.1938 11.5548 58.2908 11.8394 59.3576 12.6392V12.6392ZM49.955 7.39656C50.1983 7.06662 51.5795 5.32948 53.4011 5.79327C53.5278 5.83906 54.612 6.2598 55.004 7.21511C55.2754 7.87643 55.1692 8.68575 54.6872 9.61995C54.4049 10.1672 54.0293 10.7424 53.5703 11.3301C53.5006 11.3652 53.4334 11.4054 53.3643 11.4422C53.2185 11.5192 53.0732 11.5961 52.9315 11.6791C52.8333 11.7372 52.7388 11.7981 52.6426 11.8583C52.5321 11.9279 52.4215 11.9969 52.3141 12.0699C52.2135 12.1371 52.1154 12.206 52.018 12.276C51.9199 12.3462 51.8229 12.4166 51.7272 12.4885C51.6282 12.5632 51.5304 12.6377 51.4344 12.7139C51.3479 12.7825 51.264 12.8514 51.1805 12.9206C51.0819 13.0021 50.9833 13.0831 50.8881 13.1656C50.8238 13.2214 50.7626 13.2773 50.6998 13.3335C50.2915 13.6978 49.9196 14.0608 49.5926 14.4032C49.5881 14.4079 49.5826 14.4137 49.5782 14.4183C49.6961 13.6777 49.7906 12.8154 49.8116 11.9139C49.8129 11.8575 49.8162 11.802 49.8166 11.7454C49.8184 11.5854 49.8148 11.424 49.8115 11.2622C49.8098 11.1742 49.8096 11.0861 49.8055 10.9978C49.7995 10.8453 49.7877 10.694 49.7759 10.541C49.7685 10.4441 49.7615 10.3474 49.7516 10.2506C49.7362 10.1017 49.7163 9.95347 49.6951 9.80522C49.6808 9.70689 49.6662 9.60922 49.6489 9.5111C49.6236 9.36565 49.5941 9.22144 49.5616 9.07851C49.5501 9.02826 49.5435 8.9771 49.5315 8.92727C49.6513 8.36368 49.7904 7.86061 49.955 7.39656V7.39656ZM42.5509 6.53778C43.7071 5.3505 45.2779 5.91884 45.3416 5.94272C45.3667 5.95246 45.3917 5.9603 45.4172 5.96656C46.5001 6.22151 47.2899 6.79866 47.8312 7.73031C48.0624 8.12785 48.2313 8.57053 48.3578 9.03702L48.3712 9.08774C48.6032 9.97542 48.6689 10.9512 48.6463 11.8877C48.4841 11.3545 48.2687 10.8223 47.9882 10.3091C47.9795 10.2931 47.97 10.2778 47.9616 10.2625C47.8998 10.1518 47.8357 10.0421 47.7679 9.93297C47.7264 9.86637 47.6825 9.80063 47.6384 9.73548C47.6023 9.68168 47.566 9.6274 47.5276 9.57438C47.4652 9.4863 47.4005 9.39934 47.3333 9.3135C47.3154 9.29015 47.2962 9.267 47.2775 9.24391C46.739 8.5723 46.0488 7.97177 45.1688 7.49335C45.1445 7.48029 45.1201 7.46698 45.0958 7.45392C44.9707 7.38759 44.8437 7.32337 44.7112 7.26271C44.6471 7.23313 44.5797 7.20502 44.5136 7.17671C44.4127 7.13321 44.3132 7.08894 44.2078 7.04899C44.0154 6.97448 43.8172 6.90395 43.6099 6.83937C43.6086 6.83873 43.6035 6.83692 43.6013 6.83629C43.5441 6.81346 43.4195 6.76805 43.2452 6.71349C43.2441 6.71334 43.2432 6.71253 43.2417 6.71223C43.0645 6.65705 42.8373 6.59588 42.5747 6.54382C42.5657 6.54117 42.559 6.53938 42.5509 6.53778V6.53778ZM40.852 10.3662C40.2819 10.2618 39.822 9.83162 39.6797 9.27038C39.6208 9.03562 39.5422 8.44227 40.0933 7.99944C40.2487 7.87388 40.4221 7.78298 40.6052 7.71864C40.8963 7.61629 41.212 7.58398 41.522 7.58891C41.522 7.58891 41.5231 7.58905 41.5236 7.58888C41.5318 7.58907 41.5396 7.58993 41.5477 7.59012C41.6548 7.59266 41.7609 7.59828 41.8648 7.60914C41.9162 7.61463 41.965 7.62214 42.0152 7.62831C42.0996 7.63992 42.1835 7.65229 42.2628 7.6668C42.294 7.67247 42.3249 7.67822 42.3548 7.68433C42.7114 7.75792 43 7.85319 43.1431 7.90456C43.171 7.915 43.1882 7.92198 43.1914 7.9225C43.2081 7.92966 43.2251 7.93532 43.2424 7.9409C43.5443 8.03371 43.83 8.143 44.1031 8.26508C44.1809 8.2998 44.2488 8.34048 44.3234 8.37716C44.5134 8.47024 44.7005 8.56684 44.8762 8.67439C44.9532 8.72186 45.0231 8.77292 45.0961 8.82236C45.2612 8.93414 45.4219 9.05113 45.5731 9.17696C45.6325 9.22647 45.6902 9.27684 45.7464 9.32772C45.9164 9.4816 46.079 9.64362 46.2293 9.81661C46.2528 9.84325 46.2782 9.86953 46.3013 9.89659C47.0486 10.7882 47.5467 11.9235 47.7859 13.2997C47.9516 14.2533 47.962 15.1682 47.9215 15.8926C47.7117 15.5923 47.5027 15.3125 47.2955 15.0426C47.2614 14.9975 47.2264 14.9549 47.1919 14.9105C47.0007 14.6655 46.8102 14.4329 46.6221 14.2123C46.5901 14.175 46.5586 14.1368 46.5263 14.0996C44.2958 11.5327 42.2863 10.6287 40.852 10.3662V10.3662ZM52.6209 19.339C52.6132 20.2641 51.1781 22.7797 49.1233 25.8332C49.0699 25.8307 49.0163 25.8254 48.9608 25.8383C48.0292 26.0555 46.7049 26.0018 45.8459 25.3916C45.5843 25.2054 45.2197 25.2679 45.0338 25.5289C44.8466 25.7903 44.9077 26.1529 45.1698 26.3389C46.0817 26.9856 47.2583 27.1592 48.2544 27.1032C46.9514 28.9797 45.4723 30.9915 43.9777 32.9293C43.8704 32.8864 43.7538 32.8653 43.6329 32.8931C43.0481 33.0297 42.2202 32.9988 41.6897 32.6228C41.4282 32.4371 41.065 32.498 40.8777 32.7606C40.6911 33.0218 40.7519 33.3845 41.0143 33.5704C41.6179 33.9988 42.378 34.1348 43.049 34.1223C40.2865 37.6315 37.5967 40.7223 36.0287 42.0267C36.0184 42.0353 36.0085 42.0427 36.0015 42.0487C36.0004 42.0386 35.9998 42.0266 36 42.013C36.0266 40.6719 36.2887 38.7851 36.6998 36.6308C36.7264 36.6434 36.7475 36.6631 36.7765 36.672C37.2725 36.8221 37.78 36.9255 38.2837 36.979C38.3729 36.9884 38.4599 36.9774 38.5396 36.9494C38.7444 36.8774 38.9006 36.6934 38.926 36.4636C38.9607 36.1441 38.73 35.8578 38.4106 35.8244C37.9783 35.7782 37.543 35.6894 37.1162 35.5606C37.049 35.5405 36.9817 35.5378 36.9156 35.5419C37.4483 32.9465 38.1647 30.049 38.9407 27.2591C39.3407 27.7284 39.8792 28.1556 40.5207 28.3368C40.6408 28.3711 40.7625 28.3646 40.8726 28.3259C41.045 28.2653 41.1864 28.1253 41.2403 27.9364C41.3284 27.6278 41.1493 27.3067 40.8401 27.2193C40.2131 27.0421 39.6716 26.4181 39.4125 25.8779C39.3983 25.8478 39.3732 25.8278 39.3546 25.801C39.972 23.6693 40.6099 21.6543 41.2104 19.9466C41.7899 20.757 42.6636 21.5657 43.7427 21.8699C43.8628 21.9039 43.9846 21.8977 44.0944 21.8591C44.267 21.7984 44.4089 21.6579 44.4623 21.4692C44.55 21.1605 44.3714 20.8398 44.0622 20.7523C43.0464 20.4655 42.1757 19.4701 41.7635 18.6114C41.7524 18.5887 41.7328 18.5739 41.7195 18.5534C42.4405 16.6518 43.0749 15.3243 43.4997 14.9791C43.7352 14.788 43.9973 14.6418 44.2889 14.5393C44.5647 14.4423 44.8678 14.3843 45.2005 14.3648C45.6335 14.8241 46.0624 15.3381 46.4849 15.8972C46.5125 15.9338 46.5398 15.9697 46.5671 16.0069C46.7437 16.2438 46.9188 16.4912 47.0931 16.7444C47.1324 16.8015 47.1709 16.855 47.2106 16.9131C47.4142 17.2151 47.6167 17.526 47.8163 17.8496C47.8294 17.871 47.8479 17.8872 47.8637 17.9069C47.8788 17.9254 47.8922 17.9462 47.9097 17.9627C47.9145 17.9677 47.9189 17.9731 47.9244 17.9778C47.9396 17.9916 47.9575 18 47.9738 18.0114C47.9779 18.0144 47.9819 18.0172 47.9868 18.0199C48.0054 18.0325 48.0223 18.0473 48.0421 18.0578C48.0464 18.0599 48.0499 18.0628 48.0544 18.0651L48.0549 18.0649C48.0571 18.0658 48.0593 18.0664 48.0611 18.0669C48.0819 18.0771 48.1047 18.0818 48.1271 18.0894C48.1322 18.0912 48.1369 18.0926 48.142 18.0947C48.1602 18.1005 48.1774 18.1092 48.196 18.1131C48.2033 18.115 48.2108 18.1149 48.2186 18.1157C48.2337 18.1184 48.2491 18.1186 48.2645 18.1198C48.279 18.1208 48.2923 18.1197 48.3066 18.1202C48.3259 18.1204 48.3442 18.1251 48.3633 18.1233C48.7072 18.0922 49.0432 18.0669 49.3731 18.0462C49.4479 18.0416 49.5181 18.039 49.5914 18.0349C49.8503 18.0201 50.1065 18.0076 50.356 17.9994C50.42 17.9971 50.4807 17.996 50.544 17.9948C50.8046 17.9883 51.061 17.9841 51.3099 17.9846C51.353 17.9847 51.3958 17.9847 51.4384 17.9849C51.7249 17.987 52.0047 17.9925 52.2748 18.0043C52.2755 18.004 52.276 18.0044 52.2767 18.0042C52.5107 18.4414 52.6244 18.8803 52.6209 19.339V19.339ZM60.5584 17.5774C60.4044 18.1331 59.9874 18.3905 59.6645 18.5076C59.6578 18.51 59.6514 18.5122 59.6447 18.5146C59.0169 18.7353 58.2606 18.6196 57.6654 18.2109C56.5396 17.4388 54.8578 16.9918 52.6607 16.8631C52.6569 16.8627 52.6535 16.8601 52.649 16.86C52.6246 16.8586 52.5985 16.8586 52.5741 16.8572C52.3834 16.8467 52.1856 16.8406 51.9867 16.8354C51.8149 16.8304 51.6408 16.827 51.463 16.8255C51.2825 16.8244 51.1008 16.8237 50.9132 16.8262C50.6564 16.8292 50.3921 16.8379 50.1247 16.8482C50.0243 16.8519 49.9316 16.8515 49.8297 16.8564C49.868 16.8232 49.9125 16.7884 49.9524 16.7548C49.9674 16.7445 49.9858 16.7424 49.9998 16.7314C51.4947 15.5054 54.2153 13.8715 57.3765 14.7369C57.5399 14.782 57.706 14.8419 57.8719 14.9011C57.9515 14.9291 58.0299 14.9497 58.1099 14.9812C58.6187 15.1819 59.1387 15.4505 59.6656 15.7962L59.768 15.8644C59.7712 15.8663 59.7748 15.8664 59.7773 15.8686C60.0538 16.0576 60.809 16.6746 60.5584 17.5774V17.5774Z" fill="white"/>
</svg>
