<svg width="40" height="40" viewBox="0 0 40 40" fill="none" xmlns="http://www.w3.org/2000/svg">
<circle cx="20" cy="20" r="20" fill="#DDF0DB"/>
<path d="M16 21C16.5523 21 17 20.5523 17 20C17 19.4477 16.5523 19 16 19C15.4477 19 15 19.4477 15 20C15 20.5523 15.4477 21 16 21Z" fill="#429F3A"/>
<path d="M21 20C21 20.5523 20.5523 21 20 21C19.4477 21 19 20.5523 19 20C19 19.4477 19.4477 19 20 19C20.5523 19 21 19.4477 21 20Z" fill="#429F3A"/>
<path d="M24 21C24.5523 21 25 20.5523 25 20C25 19.4477 24.5523 19 24 19C23.4477 19 23 19.4477 23 20C23 20.5523 23.4477 21 24 21Z" fill="#429F3A"/>
<path d="M17 24C17 24.5523 16.5523 25 16 25C15.4477 25 15 24.5523 15 24C15 23.4477 15.4477 23 16 23C16.5523 23 17 23.4477 17 24Z" fill="#429F3A"/>
<path d="M20 25C20.5523 25 21 24.5523 21 24C21 23.4477 20.5523 23 20 23C19.4477 23 19 23.4477 19 24C19 24.5523 19.4477 25 20 25Z" fill="#429F3A"/>
<path fill-rule="evenodd" clip-rule="evenodd" d="M16 11C16 10.4477 15.5523 10 15 10C14.4477 10 14 10.4477 14 11H12C10.8954 11 10 11.8954 10 13V27C10 28.1046 10.8954 29 12 29H28C29.1046 29 30 28.1046 30 27V13C30 11.8954 29.1046 11 28 11H26C26 10.4477 25.5523 10 25 10C24.4477 10 24 10.4477 24 11H16ZM12 15V13H28V15H12ZM12 17V27H22.1716L28 21.1716V17H12ZM28 24L25 27H28V24Z" fill="#429F3A"/>
</svg>
