<svg width="40" height="40" viewBox="0 0 40 40" fill="none" xmlns="http://www.w3.org/2000/svg">
<circle cx="20" cy="20" r="20" fill="#DDF0DB"/>
<path d="M19.9998 20C19.9998 20.5523 20.4475 21 20.9998 21C21.5521 21 21.9998 20.5523 21.9998 20C21.9998 19.4477 21.5521 19 20.9998 19C20.4475 19 19.9998 19.4477 19.9998 20Z" fill="#429F3A"/>
<path d="M16.9998 21C16.4475 21 15.9998 20.5523 15.9998 20C15.9998 19.4477 16.4475 19 16.9998 19C17.5521 19 17.9998 19.4477 17.9998 20C17.9998 20.5523 17.5521 21 16.9998 21Z" fill="#429F3A"/>
<path d="M23.9998 20C23.9998 20.5523 24.4475 21 24.9998 21C25.5521 21 25.9998 20.5523 25.9998 20C25.9998 19.4477 25.5521 19 24.9998 19C24.4475 19 23.9998 19.4477 23.9998 20Z" fill="#429F3A"/>
<path fill-rule="evenodd" clip-rule="evenodd" d="M27.9998 13C29.1044 13 29.9998 13.8954 29.9998 15V25C29.9998 26.1046 29.1044 27 27.9998 27L14.2351 27C13.1305 27 12.2351 26.1046 12.2351 25V23.6749C12.2351 23.0881 11.9774 22.531 11.5304 22.151L10.7926 21.5239C9.85299 20.7252 9.85299 19.2748 10.7926 18.4761L11.5304 17.849C11.9774 17.469 12.2351 16.9119 12.2351 16.3251L12.2351 15C12.2351 13.8954 13.1305 13 14.2351 13H27.9998ZM27.9998 15V25L14.2351 25V23.6749C14.2351 22.5014 13.7198 21.3871 12.8257 20.6271L12.0879 20L12.8257 19.3729C13.7198 18.6129 14.2351 17.4986 14.2351 16.3251V15L27.9998 15Z" fill="#429F3A"/>
</svg>
