<svg width="40" height="40" viewBox="0 0 40 40" fill="none" xmlns="http://www.w3.org/2000/svg">
<circle cx="20" cy="20" r="20" fill="#DDF0DB"/>
<path fill-rule="evenodd" clip-rule="evenodd" d="M20 15.3033L18.6384 14.0377C17.9282 13.3777 16.9909 13 15.9583 13C13.777 13 12 14.7785 12 16.9501C12 17.7089 12.3196 18.6738 13.0199 19.8142C13.7071 20.9332 14.6652 22.0663 15.7051 23.1204C17.3813 24.8197 19.142 26.1865 19.9917 26.8158C20.8414 26.1482 22.6105 24.6977 24.2951 22.9491C25.3392 21.8653 26.3025 20.7163 26.9932 19.6103C27.7065 18.4682 28 17.5758 28 16.9584C28 14.7767 26.2212 13 24.0417 13C23.0091 13 22.0718 13.3777 21.3616 14.0377L20 15.3033ZM19.275 28.767C18.325 28.0929 10 22.068 10 16.9501C10 13.6713 12.675 11 15.9583 11C17.4917 11 18.9167 11.5659 20 12.5728C21.0833 11.5659 22.5083 11 24.0417 11C27.325 11 30 13.6713 30 16.9584C30 21.6269 21.7083 28.0347 20.7583 28.7503C20.5333 28.9168 20.2667 29 20 29C19.7417 29 19.4917 28.9168 19.275 28.767Z" fill="#429F3A"/>
</svg>
