<svg width="19" height="18" viewBox="0 0 19 18" fill="none" xmlns="http://www.w3.org/2000/svg">
<path d="M16.2175 11.636C15.1828 10.6558 13.9512 9.93014 12.6075 9.49087C14.0467 8.55181 14.9922 6.98021 14.9922 5.20313C14.9922 2.33413 12.5284 0 9.5 0C6.47162 0 4.00781 2.33413 4.00781 5.20313C4.00781 6.98021 4.95332 8.55181 6.39253 9.49087C5.0488 9.93014 3.81722 10.6558 2.7825 11.636C0.988186 13.3359 0 15.596 0 18L2 18C2 13.8128 5.08016 11 9.5 11C13.9198 11 17 13.8128 17 18L19 18C19 15.596 18.0118 13.3359 16.2175 11.636ZM9.5 8.5C7.2901 8.5 6 7.29676 6 5.20313C6 3.10951 7.2901 2 9.5 2C11.7099 2 13 3.10951 13 5.20313C13 7.29676 11.7099 8.5 9.5 8.5Z" fill="#429F3A"/>
</svg>
