<svg width="41" height="21" viewBox="0 0 41 21" fill="none" xmlns="http://www.w3.org/2000/svg">
<path fill-rule="evenodd" clip-rule="evenodd" d="M26.125 18.375C26.125 17.4085 26.9085 16.625 27.875 16.625C28.8415 16.625 29.625 17.4085 29.625 18.375C29.625 19.3415 28.8415 20.125 27.875 20.125C26.9085 20.125 26.125 19.3415 26.125 18.375Z" fill="white"/>
<path fill-rule="evenodd" clip-rule="evenodd" d="M35.75 18.375C35.75 17.4085 36.5335 16.625 37.5 16.625C38.4665 16.625 39.25 17.4085 39.25 18.375C39.25 19.3415 38.4665 20.125 37.5 20.125C36.5335 20.125 35.75 19.3415 35.75 18.375Z" fill="white"/>
<path fill-rule="evenodd" clip-rule="evenodd" d="M20 0.875C20 0.391751 20.3918 0 20.875 0H24.375C24.792 0 25.1511 0.294337 25.233 0.703275L25.9679 4.375H40.125C40.3858 4.375 40.633 4.49131 40.7992 4.69224C40.9654 4.89316 41.0334 5.15776 40.9845 5.41391L39.5833 12.7617C39.4632 13.366 39.1345 13.9088 38.6546 14.2951C38.1771 14.6795 37.5802 14.8846 36.9674 14.875H28.4776C27.8648 14.8846 27.2679 14.6795 26.7904 14.2951C26.3107 13.9089 25.9821 13.3664 25.8619 12.7625C25.8619 12.7622 25.862 12.7627 25.8619 12.7625L24.4002 5.4593C24.3943 5.43514 24.3893 5.41059 24.3855 5.38569L23.6578 1.75H20.875C20.3918 1.75 20 1.35825 20 0.875ZM26.3181 6.125L27.5782 12.4208C27.6182 12.6222 27.7278 12.8031 27.8878 12.9319C28.0478 13.0607 28.2479 13.1291 28.4532 13.1252L28.47 13.125H36.975L36.9918 13.1252C37.1971 13.1291 37.3973 13.0607 37.5572 12.9319C37.7164 12.8037 37.8257 12.6239 37.8662 12.4236L39.0674 6.125H26.3181Z" fill="white"/>
<path d="M6 6V11M6 16V11M6 11H11M6 11H1" stroke="white" stroke-width="2" stroke-linecap="round" stroke-linejoin="round"/>
</svg>
