<svg width="60" height="38" viewBox="0 0 60 38" fill="none" xmlns="http://www.w3.org/2000/svg">
<path d="M14.9654 12.9883C16.0681 12.9883 17.0567 13.3633 17.8298 14.0903L19.9592 11.9983C18.6664 10.8093 16.9806 10.0703 14.9654 10.0703C12.0502 10.0703 9.5279 11.7233 8.2985 14.1273C7.7915 15.1293 7.5 16.2443 7.5 17.4333C7.5 18.6233 7.7915 19.7503 8.2985 20.7393L8.3031 20.7363C9.5342 23.1603 12.0538 24.7963 14.9654 24.7963C16.9806 24.7963 18.679 24.1453 19.9084 23.0183C21.3153 21.7413 22.1265 19.8503 22.1265 17.6093C22.1265 17.0953 22.0758 16.5943 21.9998 16.1063H14.9654V18.9363H18.9959C18.8184 19.8753 18.2988 20.6523 17.5003 21.1773C16.8285 21.6283 15.9667 21.8793 14.9654 21.8793C13.0135 21.8793 11.3658 20.5893 10.7827 18.8363H10.7785C10.6292 18.3893 10.5546 17.9293 10.5546 17.4333C10.5546 16.9453 10.6433 16.4693 10.7827 16.0183V15.9823C11.389 14.2603 13.0397 12.9883 14.9654 12.9883Z" fill="white"/>
<path fill-rule="evenodd" clip-rule="evenodd" d="M28.8722 23.9106V18.7256H31.6229C32.7629 18.7256 33.7139 18.3626 34.4869 17.6366C35.2979 16.9106 35.6909 16.0086 35.6909 14.9186C35.6909 13.8546 35.2859 12.9526 34.4869 12.2146C33.7009 11.4756 32.7509 11.0996 31.6229 11.0996H27.1992V23.9106H28.8722ZM28.8722 17.1476V12.6776H31.6609C32.3199 12.6776 32.8779 12.9026 33.3079 13.3536C33.7519 13.7916 33.9799 14.3056 33.9799 14.9066C33.9799 15.5206 33.7519 16.0456 33.3079 16.4846C32.8779 16.9226 32.3199 17.1476 31.6609 17.1476H28.8722Z" fill="white"/>
<path fill-rule="evenodd" clip-rule="evenodd" d="M39.5316 14.8574C40.7606 14.8574 41.7366 15.1824 42.4466 15.8344C43.1566 16.4854 43.5116 17.3744 43.5116 18.5134V23.9234H41.9146V22.7084H41.8386C41.1536 23.7104 40.2286 24.2114 39.0876 24.2114C38.1116 24.2114 37.2876 23.9234 36.6286 23.3474C35.9696 22.7714 35.6406 22.0574 35.6406 21.1934C35.6406 20.2924 35.9826 19.5654 36.6796 19.0274C37.3766 18.4884 38.3016 18.2254 39.4676 18.2254C40.4566 18.2254 41.2806 18.4014 41.9146 18.7644V18.3884C41.9146 17.8124 41.6856 17.3244 41.2296 16.9364C40.7736 16.5354 40.2286 16.3344 39.6196 16.3344C38.6946 16.3344 37.9466 16.7234 37.4016 17.4994L35.9316 16.5854C36.7556 15.4334 37.9466 14.8574 39.5316 14.8574ZM37.3766 21.2314C37.3766 21.6574 37.5666 22.0204 37.9346 22.3084C38.3016 22.5964 38.7326 22.7334 39.2276 22.7334C39.9246 22.7334 40.5576 22.4704 41.1026 21.9704C41.6476 21.4564 41.9266 20.8554 41.9266 20.1664C41.4076 19.7664 40.6846 19.5534 39.7466 19.5534C39.0746 19.5534 38.5046 19.7164 38.0486 20.0414C37.6046 20.3544 37.3766 20.7554 37.3766 21.2314Z" fill="white"/>
<path d="M52.6858 15.1406L47.1088 27.7756H45.3978L47.4638 23.3556L43.8008 15.1406H45.6138L48.2628 21.4516H48.3008L50.8738 15.1406H52.6858Z" fill="white"/>
<path fill-rule="evenodd" clip-rule="evenodd" d="M0 3.8C0 1.701 1.722 0 3.8462 0H56.154C58.278 0 60 1.701 60 3.8V34.2C60 36.299 58.278 38 56.154 38H3.8462C1.722 38 0 36.299 0 34.2V3.8ZM3.8462 0.760002H56.154C57.853 0.760002 59.231 2.121 59.231 3.8V34.2C59.231 35.879 57.853 37.24 56.154 37.24H3.8462C2.1468 37.24 0.769203 35.879 0.769203 34.2V3.8C0.769203 2.121 2.1468 0.760002 3.8462 0.760002Z" fill="white"/>
</svg>
