<svg width="59" height="61" viewBox="0 0 59 61" fill="none" xmlns="http://www.w3.org/2000/svg">
<g filter="url(#filter0_d)">
<ellipse cx="29.4515" cy="28.0738" rx="17.4515" ry="18.0738" fill="#4D9221"/>
</g>
<path d="M41.8621 33.944C41.8306 33.8785 41.8013 33.8241 41.774 33.7805C41.3229 32.9955 40.4609 32.032 39.1884 30.8897L39.1615 30.8636L39.1481 30.8507L39.1345 30.8376H39.1208C38.5433 30.3057 38.1776 29.948 38.0245 29.7649C37.7442 29.4161 37.6815 29.063 37.8346 28.7053C37.9428 28.435 38.3492 27.8642 39.053 26.9921C39.4231 26.5299 39.7163 26.1595 39.9328 25.8804C41.4942 23.8747 42.1711 22.5931 41.9634 22.035L41.8828 21.9046C41.8286 21.8261 41.6887 21.7542 41.4634 21.6887C41.2375 21.6233 40.9488 21.6125 40.5967 21.6561L36.6981 21.6821C36.635 21.6605 36.5448 21.6625 36.4273 21.6887C36.31 21.7149 36.2513 21.7281 36.2513 21.7281L36.1834 21.7608L36.1295 21.8002C36.0844 21.8262 36.0348 21.872 35.9806 21.9374C35.9267 22.0026 35.8816 22.0791 35.8455 22.1663C35.4211 23.2213 34.9385 24.2023 34.3969 25.1091C34.063 25.6498 33.7563 26.1184 33.4762 26.5152C33.1965 26.9118 32.9619 27.2041 32.7725 27.3914C32.5828 27.5789 32.4117 27.7291 32.2579 27.8426C32.1045 27.9561 31.9873 28.0041 31.9062 27.9865C31.8249 27.969 31.7483 27.9516 31.6758 27.9342C31.5495 27.8556 31.448 27.7488 31.3714 27.6137C31.2945 27.4786 31.2427 27.3085 31.2156 27.1035C31.1887 26.8985 31.1728 26.7221 31.1682 26.5738C31.164 26.4257 31.1659 26.2162 31.1751 25.9459C31.1845 25.6755 31.1887 25.4925 31.1887 25.3966C31.1887 25.0652 31.1954 24.7055 31.2088 24.3175C31.2225 23.9295 31.2335 23.6221 31.2428 23.3956C31.252 23.1688 31.2562 22.929 31.2562 22.6761C31.2562 22.4232 31.2403 22.2249 31.2088 22.081C31.1777 21.9372 31.13 21.7977 31.067 21.6624C31.0037 21.5272 30.9111 21.4227 30.7895 21.3485C30.6677 21.2743 30.5163 21.2155 30.3361 21.1718C29.8577 21.0672 29.2486 21.0107 28.5084 21.0019C26.8299 20.9845 25.7513 21.0892 25.273 21.3159C25.0835 21.4117 24.912 21.5426 24.7587 21.7081C24.5962 21.9 24.5735 22.0048 24.6908 22.022C25.2324 22.1004 25.6158 22.2879 25.8414 22.5843L25.9227 22.7414C25.986 22.8548 26.0491 23.0554 26.1124 23.3431C26.1755 23.6308 26.2162 23.9491 26.2341 24.2977C26.2792 24.9343 26.2792 25.4793 26.2341 25.9326C26.1889 26.3862 26.1463 26.7392 26.1055 26.9921C26.0648 27.245 26.0039 27.4499 25.9227 27.6068C25.8414 27.7638 25.7873 27.8597 25.7602 27.8945C25.7331 27.9293 25.7106 27.9513 25.6926 27.9599C25.5753 28.0033 25.4533 28.0255 25.3271 28.0255C25.2006 28.0255 25.0473 27.9643 24.8668 27.8422C24.6864 27.7201 24.4992 27.5523 24.3051 27.3386C24.111 27.1249 23.8922 26.8263 23.6484 26.4427C23.4049 26.059 23.1521 25.6056 22.8904 25.0825L22.6739 24.7031C22.5385 24.459 22.3536 24.1036 22.1189 23.6372C21.8841 23.1706 21.6766 22.7192 21.4962 22.2833C21.4241 22.1001 21.3157 21.9607 21.1714 21.8648L21.1036 21.8255C21.0586 21.7906 20.9863 21.7537 20.8871 21.7143C20.7877 21.6749 20.6841 21.6467 20.5757 21.6293L16.8665 21.6554C16.4875 21.6554 16.2303 21.7383 16.0949 21.904L16.0407 21.9824C16.0137 22.0261 16 22.0958 16 22.1918C16 22.2877 16.0271 22.4054 16.0813 22.5448C16.6227 23.7744 17.2116 24.9603 17.8478 26.1025C18.484 27.2448 19.0368 28.1649 19.506 28.8621C19.9753 29.5597 20.4536 30.2182 20.9409 30.8371C21.4283 31.4562 21.7509 31.853 21.9088 32.0273C22.0668 32.202 22.1909 32.3325 22.2811 32.4197L22.6196 32.7335C22.8362 32.9429 23.1543 33.1935 23.5739 33.4856C23.9937 33.7778 24.4584 34.0655 24.9683 34.3491C25.4783 34.6323 26.0716 34.8634 26.7485 35.0421C27.4253 35.221 28.0841 35.2928 28.7249 35.2581H30.2817C30.5975 35.2318 30.8367 35.1359 30.9992 34.9703L31.0531 34.9047C31.0893 34.8527 31.1232 34.7718 31.1545 34.663C31.1862 34.5541 31.2019 34.434 31.2019 34.3034C31.1927 33.9285 31.2222 33.5906 31.2897 33.2898C31.3572 32.9891 31.4341 32.7624 31.5201 32.6097C31.6061 32.4572 31.7031 32.3284 31.8111 32.2241C31.9193 32.1195 31.9964 32.0561 32.0416 32.0343C32.0865 32.0124 32.1224 31.9975 32.1495 31.9886C32.3661 31.9188 32.621 31.9864 32.9146 32.1915C33.2079 32.3964 33.4831 32.6494 33.7404 32.9501C33.9977 33.2511 34.3067 33.5888 34.6676 33.9636C35.0288 34.3386 35.3446 34.6174 35.6152 34.8008L35.8858 34.9577C36.0666 35.0625 36.3012 35.1584 36.5901 35.2456C36.8784 35.3327 37.131 35.3545 37.3479 35.3109L40.8133 35.2587C41.1561 35.2587 41.4228 35.2039 41.612 35.0951C41.8015 34.9861 41.9141 34.866 41.9504 34.7354C41.9867 34.6047 41.9886 34.4563 41.9573 34.2905C41.9252 34.1251 41.8936 34.0094 41.8621 33.944Z" fill="white"/>
<defs>
<filter id="filter0_d" x="0" y="0" width="58.903" height="60.1475" filterUnits="userSpaceOnUse" color-interpolation-filters="sRGB">
<feFlood flood-opacity="0" result="BackgroundImageFix"/>
<feColorMatrix in="SourceAlpha" type="matrix" values="0 0 0 0 0 0 0 0 0 0 0 0 0 0 0 0 0 0 127 0"/>
<feMorphology radius="2" operator="dilate" in="SourceAlpha" result="effect1_dropShadow"/>
<feOffset dy="2"/>
<feGaussianBlur stdDeviation="5"/>
<feColorMatrix type="matrix" values="0 0 0 0 0 0 0 0 0 0 0 0 0 0 0 0 0 0 0.1 0"/>
<feBlend mode="normal" in2="BackgroundImageFix" result="effect1_dropShadow"/>
<feBlend mode="normal" in="SourceGraphic" in2="effect1_dropShadow" result="shape"/>
</filter>
</defs>
</svg>
